<?xml version="1.0" encoding="UTF-8"?>
<svg version="1.1" xmlns="http://www.w3.org/2000/svg" width="512" height="512">
<path d="M0 0 C0.886875 0.66 1.77375 1.32 2.6875 2 C3.49316406 2.59683594 4.29882812 3.19367188 5.12890625 3.80859375 C13.07636616 10.61550216 16.93560268 20.54456743 17.96484375 30.75 C18.36303451 41.96305171 14.85019371 50.79887513 8.6875 60 C8.0275 60.99 7.3675 61.98 6.6875 63 C7.35394531 63.32871094 8.02039063 63.65742188 8.70703125 63.99609375 C20.79943278 70.23678769 29.53227679 78.22705083 37.6875 89 C35.17848877 91.60981971 32.71088374 93.87909433 29.6875 95.875 C29.0275 96.32617188 28.3675 96.77734375 27.6875 97.2421875 C25.6875 98 25.6875 98 23.6015625 97.33203125 C21.64080964 95.96750732 20.48456317 94.71876259 19.0625 92.8125 C10.87496253 82.94231072 -2.69127408 76.11691953 -15.41357422 74.77905273 C-33.35812152 73.8082416 -47.12207216 78.27794471 -61.0625 89.75 C-70.12254379 98.16174012 -74.92040576 109.03952878 -77.3125 121 C-40.6825 121 -4.0525 121 33.6875 121 C35.0075 115.39 36.3275 109.78 37.6875 104 C46.04654532 84.65946377 58.46772044 72.74486076 76.6875 63 C76.21699219 62.29875 75.74648438 61.5975 75.26171875 60.875 C67.65090198 49.27756492 63.69168905 38.70364856 66.30078125 24.7109375 C69.08168328 14.44487626 74.52401851 5.19971313 83.52734375 -0.78515625 C94.26799575 -6.82555909 105.96271794 -7.75325585 117.97265625 -5.33984375 C128.59816536 -1.88767412 136.82216481 5.49232973 141.90625 15.3671875 C146.59073534 25.57267341 147.38754987 36.5277188 144.125 47.375 C141.98840141 53.06745401 138.72980705 57.50350115 134.6875 62 C137.61457575 64.27358907 140.64091832 66.21095508 143.8125 68.125 C154.25057646 74.77372158 164.06307178 83.75114356 169.6875 95 C170.12578125 94.34515625 170.5640625 93.6903125 171.015625 93.015625 C179.45173958 80.87585037 189.25723573 70.57020123 202.6875 64 C203.6775 64 204.6675 64 205.6875 64 C204.76517578 62.69289062 204.76517578 62.69289062 203.82421875 61.359375 C197.01863111 51.443142 192.13520852 41.39706757 193.6875 29 C195.80730414 17.71081054 200.50090122 8.14513238 209.6875 1 C221.31275366 -5.78631559 232.76047951 -8.02474194 246.0390625 -5.31640625 C256.02926272 -1.92536646 264.89672216 5.02726621 269.9765625 14.37109375 C274.68895842 24.69429201 275.74350619 37.18749415 272.0625 48.0625 C270.25584086 52.31041541 267.88104352 55.88077358 264.95703125 59.44140625 C263.60196959 60.98928875 263.60196959 60.98928875 262.6875 63 C263.48671875 63.37769531 264.2859375 63.75539063 265.109375 64.14453125 C284.26950106 73.74708269 296.3081619 89.05629702 303.7890625 108.92578125 C306.77654133 118.79562953 305.6875 127.14845795 305.6875 138 C173.6875 138 41.6875 138 -94.3125 138 C-94.3125 115.94642857 -94.3125 115.94642857 -91.3125 107 C-105.76971719 106.28898932 -116.90542745 108.3918923 -128.3125 118 C-135.64702419 124.67671933 -140.91163992 134.79652593 -141.55078125 144.6875 C-141.92335677 158.98841212 -139.26142711 170.12479347 -129.3125 181 C-120.05064438 189.14195804 -109.45978661 193.09535509 -97.21940613 193.15821838 C-96.51684655 193.16315636 -95.81428697 193.16809434 -95.09043771 193.17318195 C-92.74282992 193.18850607 -90.39524937 193.19690372 -88.04760742 193.20532227 C-86.36215985 193.21490479 -84.67671466 193.22491509 -82.99127197 193.23532104 C-78.41941508 193.26233558 -73.84754791 193.28336383 -69.27565551 193.30332303 C-64.49635813 193.32520387 -59.71709233 193.3525823 -54.93782043 193.37937927 C-45.88922459 193.42927778 -36.84061119 193.47422716 -27.79198104 193.51740164 C-17.48974279 193.5667983 -7.18753624 193.62170742 3.11467135 193.67708123 C24.30558487 193.79085764 45.49652914 193.89751061 66.6875 194 C66.6875 199.28 66.6875 204.56 66.6875 210 C44.39019774 210.092807 22.0929424 210.16408624 -0.2045145 210.20724869 C-10.55885478 210.2278272 -20.91307244 210.25585722 -31.26733398 210.30175781 C-40.29771399 210.34177035 -49.32800514 210.36746701 -58.35847133 210.37635398 C-63.1349777 210.38154442 -67.91122999 210.39364442 -72.6876545 210.42292023 C-77.19467482 210.45031778 -81.70133936 210.45839648 -86.20843506 210.45243073 C-87.85180032 210.45352019 -89.49517902 210.46132786 -91.1384716 210.4768219 C-110.44733047 210.64975995 -127.71162704 206.15871705 -142.09765625 192.37890625 C-155.19153564 178.31510987 -158.98214728 162.84636681 -158.625 144.1796875 C-157.90237391 127.55326548 -149.08842057 114.07378263 -137.19140625 103.03125 C-123.48762249 91.56533184 -108.93507506 89.49478148 -91.73046875 90.04882812 C-85.41392599 90.10574151 -85.41392599 90.10574151 -80.1105957 87.09448242 C-78.35147546 84.80278232 -76.82485618 82.45930826 -75.3125 80 C-68.37603306 72.51681645 -60.22753339 67.71443408 -51.3125 63 C-51.89257812 62.18208984 -51.89257812 62.18208984 -52.484375 61.34765625 C-60.49846317 49.74309788 -63.28499954 40.08735047 -62.3125 26 C-60.10693635 14.65330509 -54.04213577 6.21470835 -44.73046875 -0.4921875 C-30.75784799 -9.20532419 -13.79924933 -8.33162224 0 0 Z M-41.2265625 18.296875 C-45.91292126 25.09320572 -47.25004651 30.76683294 -46.3125 39 C-44.15392818 45.77578599 -40.49269958 51.35188219 -34.3125 55 C-28.07340643 57.8143175 -21.94970166 59.02050867 -15.3125 57 C-7.31977159 53.42241648 -2.5428272 48.99168468 1 41.0625 C2.94076507 32.41727376 1.02325947 26.41199012 -3 18.8125 C-7.0972936 13.82930508 -12.61580903 10.40959129 -19.09765625 9.69140625 C-28.39794327 9.32560235 -35.09710625 10.9415275 -41.2265625 18.296875 Z M86.6875 19 C82.59057806 25.26995149 80.83030462 30.55531684 81.6875 38 C83.93670155 45.2021065 87.37305178 50.7765872 93.875 54.75 C100.31492031 58.07518761 105.78084234 58.71403075 112.8125 56.9375 C119.8076048 54.50819229 123.97928136 50.72815012 127.625 44.3125 C130.51947729 37.89849218 130.95337526 32.02408969 128.8359375 25.29296875 C125.72763942 18.24114963 121.19858493 14.14110414 114.30078125 10.8671875 C103.63226917 7.32696376 93.73874061 10.57768483 86.6875 19 Z M215.875 17.6875 C211.32708161 23.31776052 209.3318855 28.80574156 209.6875 36.0625 C210.77997207 43.55871792 214.87941333 49.09765212 220.7421875 53.7421875 C226.32768303 57.35369264 231.93019151 58.6587202 238.49609375 57.5625 C246.1495475 55.59797711 251.21312653 51.49388798 255.6875 45 C258.77524217 38.78334577 258.79962532 31.28660961 257.0703125 24.62109375 C254.37931212 18.5365752 249.24500701 13.76697368 243.328125 10.828125 C232.79455166 7.52469667 223.3410973 9.91096206 215.875 17.6875 Z M63.6875 92 C56.14654081 101.00049968 52.13978177 110.38174583 50.6875 122 C87.3175 122 123.9475 122 161.6875 122 C157.12645094 103.75580374 149.83206193 90.85575754 133.75390625 80.69140625 C110.5897425 67.91423057 81.78602199 72.80459789 63.6875 92 Z M191.09765625 93.1796875 C184.30089482 101.13311012 178.6875 111.31479929 178.6875 122 C215.3175 122 251.9475 122 289.6875 122 C285.53272551 103.99597719 278.79348236 92.29660477 263.66796875 81.7578125 C239.10759411 67.27266363 210.40283525 72.79119629 191.09765625 93.1796875 Z " fill="#000000" transform="translate(206.3125,169)"/>
<path d="M0 0 C1.58788495 0.01005504 3.1757761 0.0191764 4.76367188 0.02734375 C8.61356377 0.04742665 12.4625755 0.0866074 16.3125 0.125 C16.3125 5.405 16.3125 10.685 16.3125 16.125 C14.12753906 16.15078125 11.94257812 16.1765625 9.69140625 16.203125 C-19.03580996 16.64669242 -43.36093798 20.52118944 -65.6875 40.125 C-66.43128906 40.76953125 -67.17507812 41.4140625 -67.94140625 42.078125 C-82.74705999 55.86969287 -93.58851835 77.65346552 -94.86450195 97.93896484 C-95.46883418 126.50871057 -89.38129359 151.18599122 -69.24707031 172.55664062 C-52.14977836 189.75028551 -28.52766394 199.24134907 -4.36332494 199.40933573 C-2.64878725 199.40643363 -2.64878725 199.40643363 -0.89961243 199.4034729 C0.34301906 199.4092653 1.58565055 199.4150577 2.86593753 199.42102563 C6.28442045 199.43500359 9.7027076 199.44024931 13.12120473 199.44167423 C16.81909254 199.4453904 20.51693626 199.46055674 24.21479797 199.47428894 C30.61142699 199.49649636 37.00804018 199.51154871 43.40469933 199.52165604 C52.65303771 199.53627977 61.90132093 199.56182682 71.14962683 199.58998732 C86.15662134 199.63538838 101.16362382 199.67203075 116.1706543 199.703125 C130.74325967 199.73333798 145.31584557 199.76770084 159.88842773 199.80761719 C161.23720179 199.81130951 161.23720179 199.81130951 162.61322381 199.81507643 C167.12443654 199.82745156 171.63564904 199.83990799 176.14686143 199.85240483 C213.53538088 199.95587246 250.92392347 200.04496206 288.3125 200.125 C288.6425 206.395 288.9725 212.665 289.3125 219.125 C300.5325 207.905 311.7525 196.685 323.3125 185.125 C321.64287306 181.78574612 320.66958077 180.23517463 318.14794922 177.73339844 C317.50743622 177.0930365 316.86692322 176.45267456 316.20700073 175.79290771 C315.17254318 174.77393402 315.17254318 174.77393402 314.1171875 173.734375 C313.40974396 173.02976135 312.70230042 172.32514771 311.97341919 171.59918213 C309.71610138 169.3530461 307.45192367 167.11396991 305.1875 164.875 C303.65449047 163.35202283 302.12193285 161.82859061 300.58984375 160.3046875 C296.83594985 156.57282745 293.07588914 152.84728339 289.3125 149.125 C288.9825 155.395 288.6525 161.665 288.3125 168.125 C251.3525 168.125 214.3925 168.125 176.3125 168.125 C176.3125 162.845 176.3125 157.565 176.3125 152.125 C207.9925 152.125 239.6725 152.125 272.3125 152.125 C272.3125 137.935 272.3125 123.745 272.3125 109.125 C280.1875 115.875 280.1875 115.875 282.73582458 118.42807007 C283.31760971 119.00848053 283.89939484 119.58889099 284.49880981 120.18688965 C285.1094931 120.80116821 285.72017639 121.41544678 286.34936523 122.04833984 C287.34576271 123.04451828 287.34576271 123.04451828 288.36228943 124.06082153 C290.53427269 126.23349559 292.70270279 128.40967872 294.87109375 130.5859375 C296.38544682 132.10215772 297.90002237 133.61815576 299.41481018 135.13394165 C303.38388372 139.10681703 307.34994381 143.08268731 311.31536865 147.0592041 C315.36922562 151.12332554 319.42594637 155.18458622 323.48242188 159.24609375 C331.42857526 167.20294327 339.37154577 175.16296194 347.3125 183.125 C345.9996304 186.0247341 344.59346589 188.09359264 342.34532166 190.3394165 C341.73819839 190.95073425 341.13107513 191.562052 340.5055542 192.19189453 C339.84106262 192.8507666 339.17657104 193.50963867 338.49194336 194.18847656 C337.79100052 194.89131775 337.09005768 195.59415894 336.36787415 196.31829834 C334.05088791 198.63898801 331.72678244 200.95240173 329.40234375 203.265625 C327.79297563 204.87380125 326.18397673 206.48234707 324.57533264 208.09124756 C321.20491828 211.46009794 317.83116994 214.82556115 314.45483398 218.18847656 C310.11601595 222.51027083 305.78384415 226.83865306 301.45390987 231.16934586 C298.13350328 234.48948128 294.81050271 237.80700986 291.48660469 241.1236496 C289.88752482 242.71953664 288.28905929 244.31603949 286.69120598 245.9131546 C284.4645338 248.13767164 282.23460823 250.35887195 280.00366211 252.57910156 C279.3371463 253.24607056 278.67063049 253.91303955 277.98391724 254.60021973 C273.4269755 259.125 273.4269755 259.125 272.3125 259.125 C272.3125 244.935 272.3125 230.745 272.3125 216.125 C266.9757888 216.13499275 266.9757888 216.13499275 261.53126526 216.14518738 C228.8522882 216.20497369 196.17331877 216.24971481 163.49429903 216.27819599 C159.20510224 216.28194779 154.91590558 216.28583079 150.62670898 216.28979492 C149.77286182 216.29058185 148.91901466 216.29136878 148.03929334 216.29217956 C134.24149067 216.30520838 120.44372576 216.32884821 106.64594544 216.35645839 C92.47212016 216.38458301 78.29831457 216.40119113 64.12446254 216.40726548 C55.38915794 216.41136734 46.65396012 216.42428928 37.91868841 216.4487494 C31.91621171 216.46469387 25.91378964 216.46938081 19.91129334 216.46550413 C16.45603457 216.46359602 13.00096146 216.46637326 9.54573631 216.48261642 C-26.03651905 216.62517578 -55.46131277 209.24803507 -81.765625 184.109375 C-102.35720293 163.62660329 -111.98969422 136.68320903 -112.1875 108.125 C-112.10827513 96.68690922 -111.30060222 86.00555211 -107.6875 75.125 C-107.47319336 74.4757959 -107.25888672 73.8265918 -107.03808594 73.15771484 C-97.42551782 45.09657166 -77.3731557 22.97624925 -50.85205078 9.87573242 C-43.72989077 6.5175581 -36.34190326 3.98044962 -28.6875 2.125 C-27.54631714 1.84245361 -27.54631714 1.84245361 -26.38208008 1.55419922 C-17.62433073 -0.33464553 -8.90679801 -0.09887115 0 0 Z " fill="#000000" transform="translate(111.6875,210.875)"/>
<path d="M0 0 C26.4 0 52.8 0 80 0 C85.0181882 66.00847554 85.0181882 66.00847554 71.31640625 82.265625 C62.37252892 92.07506435 51.92808418 100.49893653 41 108 C40.01249756 107.12617676 39.02499512 106.25235352 38.00756836 105.35205078 C35.45607022 103.16077686 32.86872058 101.16205161 30.08422852 99.27685547 C17.64013603 90.79778839 2.28962062 79.61352082 -0.95062256 64.03710938 C-4.41599197 43.03009677 -1.38790141 20.8185212 0 0 Z M16 16 C12.21469786 43.75173143 12.21469786 43.75173143 21.34375 69.33203125 C26.81943016 75.36931156 33.26256262 80.44640619 40 85 C40.97066406 84.13375 41.94132812 83.2675 42.94140625 82.375 C45.6349764 80.03500759 48.34739288 78.14720895 51.40234375 76.3125 C56.91064095 72.5322027 61.753264 68.482261 64 62 C66.75906106 47.11769287 64.71391258 30.74019502 64 16 C48.16 16 32.32 16 16 16 Z " fill="#000000" transform="translate(400,42)"/>
<path d="M0 0 C5.28 0 10.56 0 16 0 C16.2475 2.3925 16.495 4.785 16.75 7.25 C18.83739011 24.81946247 26.39726427 40.96652374 40.03515625 52.5859375 C44.84038302 56.26577659 49.52206998 59.4030554 55 62 C54.39644592 65.85025879 53.23227397 68.86101159 51.4375 72.3125 C50.75494141 73.63701172 50.75494141 73.63701172 50.05859375 74.98828125 C49.70925781 75.65214844 49.35992187 76.31601562 49 77 C30.98404353 71.51117361 18.32303875 56.72930897 9.25390625 40.96484375 C2.14189599 27.50345775 -0.14057114 15.04111227 0 0 Z " fill="#000000" transform="translate(24,318)"/>
<path d="M0 0 C5.61 0 11.22 0 17 0 C17 5.28 17 10.56 17 16 C11.39 16 5.78 16 0 16 C0 10.72 0 5.44 0 0 Z " fill="#000000" transform="translate(352,443)"/>
<path d="M0 0 C5.61 0 11.22 0 17 0 C17 5.28 17 10.56 17 16 C11.39 16 5.78 16 0 16 C0 10.72 0 5.44 0 0 Z " fill="#000000" transform="translate(320,443)"/>
<path d="M0 0 C7.425 0.99 7.425 0.99 15 2 C15 7.28 15 12.56 15 18 C8.64012196 18.20190089 3.14778871 17.6277833 -3 16 C-2.88416889 14.45761734 -2.75683428 12.91609728 -2.625 11.375 C-2.55539063 10.51648438 -2.48578125 9.65796875 -2.4140625 8.7734375 C-2 6 -2 6 0 0 Z " fill="#000000" transform="translate(93,385)"/>
<path d="M0 0 C5.61 0 11.22 0 17 0 C17 5.28 17 10.56 17 16 C11.39 16 5.78 16 0 16 C0 10.72 0 5.44 0 0 Z " fill="#000000" transform="translate(143,331)"/>
<path d="M0 0 C5.61 0 11.22 0 17 0 C17 5.28 17 10.56 17 16 C11.39 16 5.78 16 0 16 C0 10.72 0 5.44 0 0 Z " fill="#000000" transform="translate(111,331)"/>
<path d="M0 0 C5.61 0 11.22 0 17 0 C17 5.28 17 10.56 17 16 C11.39 16 5.78 16 0 16 C0 10.72 0 5.44 0 0 Z " fill="#000000" transform="translate(432,74)"/>
</svg>
