<svg xmlns="http://www.w3.org/2000/svg" xml:space="preserve" width="9477.333" height="2093.333"><path d="M16300 0H0v3600.31h16300z" style="fill:#fff;fill-opacity:1;fill-rule:nonzero;stroke:none" transform="matrix(.58143 0 0 -.58143 0 2093.333)"/><path d="M16283.2 156.088c-2.2-15.066-5.2-29.892-8.8-44.404-5.1-20.184-1-90.467-4.7-111.684h-848.5c-6.2 170.24-6.2 404.589 36.4 567.789 4.7 18.093 9.9 35.922 15.5 53.439 11.1 34.864 24 68.481 38.9 100.462 36.2 77.731 84.1 145.731 146.7 198.473.2.193.4.361.6.529 4.8 4.037 16.8 11.461 30.1 19.295 18.5 10.957 39.6 22.754 47.2 27.44 56.5-16.531 110-40.608 159.8-70.619a733 733 0 0 0 62.3-42.049c1.6-1.154 3.2-2.331 4.7-3.509 52.9-40.247 100.6-87.318 142.1-138.787 29.8-36.908 56.4-76.074 79.5-116.634 14.9-26.19 28.4-52.958 40.2-80.085 52.8-120.094 74.8-246.867 58-359.656" style="fill:#286e70;fill-opacity:1;fill-rule:nonzero;stroke:none" transform="matrix(.5549 0 0 -.5549 0 2093.333)"/><path d="M16300 1101.31c-18-9.8-32.9-23.01-45.1-38.24-21.1-26.18-34.7-58.3-43.6-89.503-14.6-51.454-16.6-100.274-19-115.264-10.2-66.565-160.8-31.613-247.7 16.087-39 21.424-65.2 45.408-60.1 63.957 0 .195 72 256.903 72 256.903s306.2-51.5 343.5-93.94" style="fill:#995833;fill-opacity:1;fill-rule:nonzero;stroke:none" transform="matrix(.54703 0 0 -.54703 0 2093.333)"/><path d="M16281.1 1280.67c18.6-13.95 18.9-45.42-29.9-53.7-61.5-7.76-9.2 123.41-9.2 123.41.4 2.58 12.2-49.51 39.1-69.71" style="fill:#431815;fill-opacity:1;fill-rule:nonzero;stroke:none" transform="matrix(.5537 0 0 -.5537 0 2093.333)"/><path d="M16285.5 1163.38c14.5-20.35 1.4-36.35-16-36.35-.2 0-.3-.17-.4-.48-3.1-5.8-13.8-61.07-30.2-76.57-25.5-24.16-82-20.69-188.1 11.01l-210.8 51.73s-210.3 217.88-191.4 431.6c10.3 116.18 136.7 292.24 424.6 215.18 87.9-23.53 185.4-107.25 213.1-189.56 9-26.97 13.7-143.39 13.7-143.39-.3-8.24-15.6-58.88-16-66.89-2-45.79 7.2-92.04 2.9-129.39-.8-7.14-4.4-17.45 4.4-31.98.1-.15.3-.29.3-.44 8.3-9.1 5.3-34.47-6.1-34.47" style="fill:#431815;fill-opacity:1;fill-rule:nonzero;stroke:none" transform="matrix(.55235 0 0 -.55235 0 2093.333)"/><path d="M16271.2 1367.1c-1-13.89 4.4-25.61 12-26.16 7.7-.58 14.7 10.21 15.8 24.07 1 13.89-4.4 25.61-12 26.18-7.7.57-14.7-10.21-15.8-24.09" style="fill:#070707;fill-opacity:1;fill-rule:nonzero;stroke:none" transform="matrix(.551 0 0 -.551 0 2093.333)"/><path d="M16300 1061.89c-21.2-26.23-31.4-54.13-40.4-85.42-46.4 24.08-118.1 71.95-174.6 157.56 121.4-39.56 182.9-63.15 215-72.14" style="fill:#311112;fill-opacity:1;fill-rule:nonzero;stroke:none" transform="matrix(.5454 0 0 -.5454 0 2093.333)"/><path d="M16272.1 1413.44c4.9-2.84 27.9 18.16 7.2 26.17-35.8 13.88-88.6-7.27-113.2-37.73 31.8 1.38 49.1 44.46 106 11.56" style="fill:#070707;fill-opacity:1;fill-rule:nonzero;stroke:none" transform="matrix(.55237 0 0 -.55237 0 2093.333)"/><path d="M16300 5.03h-386.8c-48.8 180.034-105.9 418.938-105.9 479.08 0 101.48 33.3 205.452 154.4 223.546 168.8 25.247 239.2-102.165 255.9-192.658 7.9-42.463 51.5-311.206 82.4-509.968" style="fill:#236060;fill-opacity:1;fill-rule:nonzero;stroke:none" transform="matrix(.54605 0 0 -.54605 0 2093.333)"/><path d="M16268.2 1272.1c-16.3-6.06-39-14.21-64.7-1.21 24.6 42.53 48 91.39 67.2 138.51 29.3-32.1 22.5-128.06-2.5-137.3" style="fill:#86492a;fill-opacity:1;fill-rule:nonzero;stroke:none" transform="matrix(.54143 0 0 -.54143 0 2093.333)"/><path d="M16236.4 1426.47c-90.6 34.98-95.6-69.29-63.8-120.85 17.8-28.81 64.8-37.45 83-31.12 28.3 9.84 44.4 127.43-19.2 151.97" style="fill:#995833;fill-opacity:1;fill-rule:nonzero;stroke:none" transform="matrix(.542 0 0 -.542 0 2093.333)"/><path d="M16284.3 1326.2s15.7 14.57.9 19.33c-36.1 11.53-3.3 22.28-17.9 22.94-16.2.77-17-7.69-16-17.94s19.6-25.02 33-24.33" style="fill:#86492a;fill-opacity:1;fill-rule:nonzero;stroke:none" transform="matrix(.54096 0 0 -.54096 0 2093.333)"/><path d="M16293.2 1389.71c3-.99 6.8 16.38-8.9 25.28-52.9 29.87-78.8-22.3-63.9-69.84 7.2-23.09 31-47.69 34.2-44.58-16.4 26.74-52.4 80.7-9 105.5 31.2 17.83 43.1-14.86 47.6-16.36" style="fill:#86492a;fill-opacity:1;fill-rule:nonzero;stroke:none" transform="matrix(.54041 0 0 -.54041 0 2093.333)"/><path d="M16284.7 1238.56c-15.3-19.93-52.4-17.13-82.9 6.24-30.5 23.4-42.9 58.52-27.6 78.48 15.3 19.94 52.5 17.14 83-6.24 30.5-23.39 42.8-58.51 27.5-78.48" style="fill:#311112;fill-opacity:1;fill-rule:nonzero;stroke:none" transform="matrix(.54706 0 0 -.54706 0 2093.333)"/><path d="M16203.9 1358.7s78.6 24.76 87.4 27.67c8.7 2.91 7.3 8.73 7.3 8.73h-16.1c-23.3 0-78.6-30.57-78.6-30.57z" style="fill:#070707;fill-opacity:1;fill-rule:nonzero;stroke:none" transform="matrix(.55157 0 0 -.55157 0 2093.333)"/><path d="M16285.5 1163.38c14.5-20.35 1.4-36.35-16-36.35-.2 0-.3-.17-.4-.48-37.4 20.85-37.4 29.57-69.4 47.02 36.3 8.72 50.9 20.35 91.9 24.28 8.3-9.1 5.3-34.47-6.1-34.47" style="fill:#311112;fill-opacity:1;fill-rule:nonzero;stroke:none" transform="matrix(.55235 0 0 -.55235 0 2093.333)"/><path d="M16300 1644.54s-211.4-96.21-269.7-357.15c-26.8-120.09 52.5-313.392 52.5-313.392s-425-435.364-495.6-351.312c-105.3 125.316-19.8 762.614 13.1 969.374 35 220.11 350.1 379.26 622.4 180.75 6-4.36-18.5-21.33-11.6-24.78 32-16.03 56.9-63.52 88.9-103.49" style="fill:#1b494c;fill-opacity:1;fill-rule:nonzero;stroke:none" transform="matrix(.55093 0 0 -.55093 0 2093.333)"/><path d="M16194.7 1047.71s27.8-7.31 36.5-42.43c3.5-13.722-5.4-56.325-5.4-56.325s17.1-18.289 27.4-44.618c3.7-9.449-2.3-40.683-2.3-40.683s36.4-39.178 38.8-57.321c10.3-74.615-13.9-102.231-32.3-96.888-50.3 14.622-141.6 39.542-254.4 63.223-174.1 36.579-433-138.979-386.2 30.725 46.8 169.706 192.9 399.307 217.9 397.877 24.9-1.41 136.1-153.56 360-153.56" style="fill:#1b494c;fill-opacity:1;fill-rule:nonzero;stroke:none" transform="matrix(.54895 0 0 -.54895 0 2093.333)"/><path d="M16297.3 1743.8c-5.2-5.3-10.7-10.99-15.8-16.75-5.3-5.71-10.4-11.55-15.3-17.51-10-11.83-19.7-23.97-28.8-36.45-4.8-6.14-9.1-12.52-13.6-18.82s-8.6-12.88-12.9-19.23l-12.4-19.58c-3.8-6.67-7.8-13.27-11.6-19.98-30.5-53.55-53.1-111.2-67.5-170.75l-5-22.44-3.7-22.67-1-5.67c-.3-1.9-.4-3.8-.7-5.69l-1.3-11.42-1.4-11.41c-.5-3.83-.6-7.65-.9-11.47l-1.4-22.98-.2-23.02c0-3.85-.3-7.7-.1-11.54l.5-11.52.5-11.53c.2-3.85.2-7.69.6-11.52 5-61.43 18.4-122.33 38-181.7v-.03c1-3.01-.6-6.28-3.6-7.27-2.8-.93-5.9.43-7.1 3.06-26.4 57.67-44.3 119.76-52.3 183.51-3.3 31.89-5.4 64.14-3.2 96.34.3 4.02.2 8.06.7 12.05l1.1 12.05c.8 8.01 1.3 16.09 2.7 24.02l3.8 23.89 5 23.68c7.2 31.44 16.9 62.29 29.2 92.07 3.2 7.38 6.3 14.82 9.6 22.13l10.7 21.66 11.4 21.23c4 6.97 8.1 13.87 12.2 20.74 4.3 6.8 8.8 13.47 13.1 20.2 4.6 6.6 9.2 13.16 13.8 19.69 9.6 12.85 19.5 25.44 30 37.54 10.3 12.17 21.4 23.74 32.8 34.97 11.5 11.14 23.2 21.8 36.2 31.65 2.8 2.06 6.7 1.52 8.7-1.22 1.9-2.5 1.6-5.96-.6-8.12z" style="fill:#163d3e;fill-opacity:1;fill-rule:nonzero;stroke:none" transform="matrix(.54777 0 0 -.54777 0 2093.333)"/><path d="M16300 954.136c-12.4-.659-24.9-.048-37.3.928a412 412 0 0 0-37.2 4.86c-24.7 4.372-49.1 10.795-72.8 19.342-47.6 16.923-92.4 42.664-131.2 75.824-38.7 33.19-70.8 74.19-94.3 119.3-23 45.38-38.3 94.27-45 143.91-.5 3.74 2.1 7.21 5.8 7.72 3.5.47 6.7-1.71 7.6-4.96v-.04c13.1-47.16 30.3-92.68 53.9-134.56 23.7-41.77 53.7-79.64 89.5-111.44 35.8-31.72 76.8-57.78 120.9-77.829 22.1-10.013 45-18.56 68.3-25.813 5.9-1.905 11.7-3.541 17.7-5.251 5.9-1.563 11.8-3.126 17.8-4.566 3-.758 6-1.49 9-2.126 3-.684 6-1.343 9-1.929 6.1-1.318 12.2-2.393 18.3-3.37" style="fill:#163d3e;fill-opacity:1;fill-rule:nonzero;stroke:none" transform="matrix(.54597 0 0 -.54597 0 2093.333)"/><path d="M16300 861.471c-29.4-3.218-59-3.243-88.6-2.17-14.8.683-29.6 1.731-44.4 3.169a844 844 0 0 0-44.2 5.851c-58.7 9.411-116.8 26.038-171.1 52.294-13.6 6.582-26.9 13.629-39.8 21.552-3.3 1.902-6.5 4.023-9.7 6.021l-4.8 3.048-4.7 3.169c-6.2 4.218-12.3 8.777-18.4 13.287-12.1 9.239-23.6 19.138-34.6 29.621-11.1 10.437-21.2 21.917-30.8 33.717-4.8 5.87-9.3 12.07-13.7 18.21-4.3 6.29-8.6 12.61-12.4 19.19-4 6.43-7.5 13.21-11.2 19.87-3.2 6.85-6.8 13.55-9.6 20.6-12.1 27.79-20 57.14-24.5 86.74-.5 3.73 2 7.22 5.8 7.78 3.4.51 6.7-1.66 7.6-4.95v-.12c7.7-27.89 17.2-55.13 30.3-80.51 3.1-6.41 6.7-12.57 10.1-18.82 3.7-6.04 7.3-12.21 11.3-18.04 3.9-5.99 8.3-11.6 12.3-17.38 4.4-5.58 8.7-11.24 13.4-16.55 9.2-10.8 19-21.02 29.4-30.67 10.4-9.68 21.3-18.823 32.7-27.356 5.8-4.169 11.5-8.386 17.5-12.287l4.4-3.023 4.5-2.901c3-1.902 5.9-3.901 9-5.706 12.2-7.484 24.7-14.334 37.5-20.819 51.3-25.769 106.7-43.736 163.2-57.097 14.2-3.339 28.4-6.29 42.8-8.923a905 905 0 0 1 43.2-7.289c28.9-4.34 58.1-7.558 87.5-9.508" style="fill:#163d3e;fill-opacity:1;fill-rule:nonzero;stroke:none" transform="matrix(.5469 0 0 -.5469 0 2093.333)"/><path d="M16300 737.146c-43.2 13.821-86.5 26.202-130.1 36.776-43.5 10.378-87.3 18.95-131.3 23.321-22 2.198-44 3.224-65.9 2.784-10.9-.293-21.8-.903-32.6-2.002-10.8-1.197-21.5-2.784-32.1-5.006-21.1-4.323-41.6-11.21-60.5-21.124-19-9.817-36-23.175-51.1-38.999v-.097c-2.7-2.735-7-2.857-9.7-.245-2.5 2.344-2.8 6.105-1 8.84 13.3 19.39 31 36.142 51.1 48.84 10.1 6.398 20.8 11.698 31.8 16.313 10.9 4.64 22.3 8.23 33.7 11.111 11.5 2.833 23.1 5.031 34.7 6.545 11.7 1.441 23.3 2.344 35 2.686 11.7.415 23.3.195 34.9-.391 11.6-.537 23.1-1.562 34.5-2.954 45.9-5.471 90.7-16.435 133.9-31.038 21.6-7.302 42.9-15.507 63.8-24.665 20.8-9.304 41.3-19.072 60.9-30.695" style="fill:#163d3e;fill-opacity:1;fill-rule:nonzero;stroke:none" transform="matrix(.546 0 0 -.546 0 2093.333)"/><path d="M16236.7 1314.54s-248.4-18.84-251.3-28.09c10.4-14.19 7.3-30.62 17.8-42.86 48.5-57 39.9-178.81-23.7-166.98-9.9-14.93-11-29.1-8.9-31.05 8.8-8.17 217.3-45.788 257.2-32.49 25.1 8.37 43.7 84.7 44.3 166.98.1 8.58 27.9 36.36 25.1 44.32-13.3 38.43-35.3 65.85-60.5 90.17" style="fill:#286e70;fill-opacity:1;fill-rule:nonzero;stroke:none" transform="matrix(.5544 0 0 -.5544 0 2093.333)"/><path d="m16300 1252.13-86.7 49.74 5.3 20.24 55.9-10.64z" style="fill:#286e70;fill-opacity:1;fill-rule:nonzero;stroke:none" transform="matrix(.5447 0 0 -.5447 0 2093.333)"/><path d="m16300 1097.86-39.4 19.53 12.8-47.74 26.6-8.22z" style="fill:#286e70;fill-opacity:1;fill-rule:nonzero;stroke:none" transform="matrix(.54353 0 0 -.54353 0 2093.333)"/><path d="M16294.9 716.34c-4.6-112.804-25.9-221.739-65.4-322.296-11.6-29.452 3.5-356.16-5.5-387.251l-1524.8 6.794c-11.3 378.127 31.1 1060.353 131.6 1416.863 53.9 191.44 128.9 372.42 230.6 535.11 16 25.54 32.6 50.62 49.9 75.22.4.59.8 1.19 1.2 1.83 6.3 8.78 24.2 21.13 46 34.17 41.1 24.49 96 51.42 113.5 62.23 142.5-41.61 273-106.66 389.9-188.82 26.4-18.64 52.2-38.13 77.3-58.46 1.8-1.54 3.7-3.12 5.6-4.66 188.2-154.36 334.4-354.48 428.8-569.18 31-70.41 56.4-142.35 75.8-214.84 34.8-129.518 50.6-260.567 45.5-386.71" style="fill:#f04059;fill-opacity:1;fill-rule:nonzero;stroke:none" transform="matrix(.2689 0 0 -.2689 0 2093.333)"/><path d="M16300 2434.17c-37.4-20.36-68.3-47.81-93.8-79.47-43.9-54.34-72-121.14-90.5-185.92-30.4-106.97-34.6-208.42-39.5-239.56-21.3-138.27-334.1-65.7-514.6 33.42-81.1 44.52-135.6 94.41-124.9 132.9 0 .46 149.5 533.88 149.5 533.88s636.3-107.07 713.8-195.25" style="fill:#f68556;fill-opacity:1;fill-rule:nonzero;stroke:none" transform="matrix(.26326 0 0 -.26326 0 2093.333)"/><path d="M16261.3 2769.16c38-28.55 38.7-93.16-61.5-110.16-126-15.9-18.8 253.16-18.8 253.16.9 5.3 25-101.51 80.3-143" style="fill:#f68556;fill-opacity:1;fill-rule:nonzero;stroke:none" transform="matrix(.26993 0 0 -.26993 0 2093.333)"/><path d="M16270.1 2535.42c29.9-41.84 3-74.71-32.9-74.71-.2 0-.5-.4-.9-1.04-6.2-11.92-28.2-125.55-61.9-157.47-52.5-49.7-168.7-42.55-386.8 22.63l-433.7 106.39s-396.9 483.74-338.9 1070.76c23.5 238.7 247 396.5 485.8 372.93l387.2-38.21c186.2-18.39 326.9-295.88 383.8-465.15 18.6-55.46 28.2-294.89 28.2-294.89-.6-16.95-32.2-121.07-32.9-137.54-4.1-94.22 14.7-189.28 6-266.13-1.7-14.7-9-35.89 8.9-65.78.3-.25.6-.55.8-.84 17-18.77 10.8-70.95-12.7-70.95" style="fill:#f68556;fill-opacity:1;fill-rule:nonzero;stroke:none" transform="matrix(.26858 0 0 -.26858 0 2093.333)"/><path d="M16095.9 3308.81c-153 8.17-265.4-4.82-399-39.86-114.6-30.08-206.3-115.88-244.8-227.91-12.9-37.44-27.7-76.72-44-116.65-38.4-93.93-85-191.38-134-276.13-64.4-111.47-133-201.13-192.7-232.66-280.9 35.51-431.6 210.02-511.5 340.64-228.1 372.93-6.2 727.1 153.7 904.53 190.1 210.96 553.1 156.75 961.2 147.88 273.9-5.95 615.2-198.16 411.1-499.84" style="fill:#f9a723;fill-opacity:1;fill-rule:nonzero;stroke:none" transform="matrix(.27153 0 0 -.27153 0 2093.333)"/><path d="M16240.7 2962.39c-2.2-28.62 8.9-52.78 24.7-53.97 15.7-1.17 30.3 21.07 32.5 49.68 2.1 28.62-9 52.78-24.7 53.96-15.9 1.19-30.4-21.05-32.5-49.67" style="fill:#261310;fill-opacity:1;fill-rule:nonzero;stroke:none" transform="matrix(.26723 0 0 -.26723 0 2093.333)"/><path d="M16300 2360.27c-44.1-54.68-65.5-112.83-84.1-178.01-96.9 50.2-246.3 149.93-364.1 328.45 253.1-82.51 381.3-131.69 448.2-150.44" style="fill:#e4784f;fill-opacity:1;fill-rule:nonzero;stroke:none" transform="matrix(.26163 0 0 -.26163 0 2093.333)"/><path d="M16257.5 3053.75c10.1-5.84 42.5 25.39 0 41.88-73.7 28.55-123.2 20.94-189-22.45-11.4-7.55-45.4-31.9-40-40.43l2.1-5.78c5.4-8.56 110 94.46 226.9 26.78" style="fill:#261310;fill-opacity:1;fill-rule:nonzero;stroke:none" transform="matrix(.26849 0 0 -.26849 0 2093.333)"/><path d="M16300 0h-876.9c-22.3 74.352-174.7 1052.6-174.7 1152.23 0 46.64 5.5 95.16 16.8 142.81 39.6 168.14 150.9 326.13 347 355.47 350.8 52.48 454.3-245.95 489.1-434.08 16.8-90.65 135-839.391 198.7-1216.43" style="fill:#f14a65;fill-opacity:1;fill-rule:nonzero;stroke:none" transform="matrix(.26271 0 0 -.26271 0 2093.333)"/><path d="M16233.1 2822.08c-34.3-12.68-81.9-29.86-135.8-2.48 51.6 89.32 100.8 192.02 141.2 291.01 61.5-67.45 47.2-269.07-5.4-288.53" style="fill:#e4784f;fill-opacity:1;fill-rule:nonzero;stroke:none" transform="matrix(.25765 0 0 -.25765 0 2093.333)"/><path d="M16200.2 3149.16c-184.1 88.61-201.2-145.75-134.3-254.21 37.4-60.59 136.4-78.7 174.5-65.45 59.6 20.74 47.9 277.25-40.2 319.66" style="fill:#f68556;fill-opacity:1;fill-rule:nonzero;stroke:none" transform="matrix(.2577 0 0 -.2577 0 2093.333)"/><path d="M16267.1 2938.68s32.9 30.64 1.7 40.63c-75.9 24.31-6.9 46.87-37.5 48.31-34 1.59-35.7-16.18-33.7-37.76s41.3-52.58 69.5-51.18" style="fill:#e4784f;fill-opacity:1;fill-rule:nonzero;stroke:none" transform="matrix(.25719 0 0 -.25719 0 2093.333)"/><path d="M16285.7 3075.9c6.2-2.1 14.3 34.48-18.8 53.2-111.3 62.91-165.9-46.94-134.6-147.08 15.2-48.62 65.5-100.41 72-93.87-34.4 56.32-110.1 169.97-18.8 222.17 65.7 37.56 90.8-31.29 100.2-34.42" style="fill:#e4784f;fill-opacity:1;fill-rule:nonzero;stroke:none" transform="matrix(.25663 0 0 -.25663 0 2093.333)"/><path d="M16268.2 2719.27c-31.8-41.48-108.9-35.66-172.2 12.96-63.4 48.57-89.1 121.59-57.3 163.02 31.8 41.44 108.9 35.63 172.3-12.97 63.4-48.61 89-121.59 57.2-163.01" style="fill:#e4784f;fill-opacity:1;fill-rule:nonzero;stroke:none" transform="matrix(.26329 0 0 -.26329 0 2093.333)"/><path d="M16102.1 2941.78s161.9 50.98 179.9 56.98c18 5.99 15 17.99 15 17.99h-33c-47.9 0-161.9-62.98-161.9-62.98z" style="fill:#261310;fill-opacity:1;fill-rule:nonzero;stroke:none" transform="matrix(.26779 0 0 -.26779 0 2093.333)"/><path d="M16270.1 2535.42c29.9-41.84 3-74.71-32.9-74.71-.2 0-.5-.4-.9-1.04-83.1 33.51-100.8 51.88-124.7 117.65 95.7-11.96 113.6 17.92 171.2 29.05 17-18.77 10.8-70.95-12.7-70.95" style="fill:#f04059;fill-opacity:1;fill-rule:nonzero;stroke:none" transform="matrix(.26858 0 0 -.26858 0 2093.333)"/><path d="M15984.2 3913.58c-189.8-81.99-410.6-138.24-483.9 31.34-73.2 169.58 40.7 387.42 230.5 469.41 161.7 69.83 450.8 12.46 496-91.91 73.2-169.58-52.7-326.85-242.6-408.84" style="fill:#f9a723;fill-opacity:1;fill-rule:nonzero;stroke:none" transform="matrix(.25416 0 0 -.25416 0 2093.333)"/><path d="m16281.5 1912.07 18.5 139.05s-166.8-83.4-364.5-37.09c-165.7 38.83-302.8 176.09-302.8 176.09l-55.6-154.44s308.9-287.33 704.4-123.61" style="fill:#f14a65;fill-opacity:1;fill-rule:nonzero;stroke:none" transform="matrix(.25996 0 0 -.25996 0 2093.333)"/><path d="m16300 2691.92-20.9-18.04-24.6-21.3s-.5-1.88-1.4-5.28c-3.4-12.97-12.8-47.78-22.3-83.68-5.2-19.57-10.4-39.44-14.8-56.31-4.8-18.19-8.5-32.84-9.9-39.59-1.1-4.73-3-8.98-5.6-12.82-12-18.29-36.8-26.53-36.8-26.53s-.6-5.62-1.8-15.04c-2-15.33-5.6-40.68-11-68.04-4.1-20.66-9.3-42.46-15.6-61.89-11.1-34.26-25.7-61.09-44.4-61.09-372.6 0-601.5 190.33-621.1 206.06 124.3 184.81 166.7 312.07 112.1 451.43 496.9-93.94 624.2-24.24 624.2-24.24z" style="fill:#f14a65;fill-opacity:1;fill-rule:nonzero;stroke:none" transform="matrix(.2704 0 0 -.2704 0 2093.333)"/><path d="m16291.3 3010.9-109.9 99.86-4.8-12.01 123.4-112.56z" style="fill:#261310;fill-opacity:1;fill-rule:nonzero;stroke:none" transform="matrix(.25863 0 0 -.25863 0 2093.333)"/><path d="m16300 2572.49-10.3-15.42-120.3 306.75 20.9-12.62z" style="fill:#261310;fill-opacity:1;fill-rule:nonzero;stroke:none" transform="matrix(.2568 0 0 -.2568 0 2093.333)"/><path d="M16300 2512.77c0-19.07-11.3-34.51-25.2-34.51-14 0-25.3 15.44-25.3 34.51 0 19.03 11.3 34.46 25.3 34.46 13.9 0 25.2-15.43 25.2-34.46" style="fill:#f58299;fill-opacity:1;fill-rule:nonzero;stroke:none" transform="matrix(.26 0 0 -.26 0 2093.333)"/><path d="M16300 2410.96c0-18.65-11-33.75-24.7-33.75-13.6 0-24.6 15.1-24.6 33.75 0 18.61 11 33.7 24.6 33.7 13.7 0 24.7-15.09 24.7-33.7" style="fill:#f58299;fill-opacity:1;fill-rule:nonzero;stroke:none" transform="matrix(.26589 0 0 -.26589 0 2093.333)"/><path d="M16300 2588.03c0-18.6-11-33.65-24.6-33.65-13.5 0-24.5 15.05-24.5 33.65 0 18.55 11 33.59 24.5 33.59 13.6 0 24.6-15.04 24.6-33.59" style="fill:#f58299;fill-opacity:1;fill-rule:nonzero;stroke:none" transform="matrix(.26669 0 0 -.26669 0 2093.333)"/><path d="M16300 2776.33c0-18.68-11.1-33.84-24.7-33.84-13.7 0-24.8 15.16-24.8 33.84 0 18.73 11.1 33.88 24.8 33.88 13.6 0 24.7-15.15 24.7-33.88" style="fill:#f58299;fill-opacity:1;fill-rule:nonzero;stroke:none" transform="matrix(.26483 0 0 -.26483 0 2093.333)"/><path d="M16300 2801.17c0-18.47-11-33.46-24.5-33.46s-24.5 14.99-24.5 33.46c0 18.53 11 33.52 24.5 33.52s24.5-14.99 24.5-33.52" style="fill:#f58299;fill-opacity:1;fill-rule:nonzero;stroke:none" transform="matrix(.26775 0 0 -.26775 0 2093.333)"/><path d="M16300 2366.94c-4.1-20.85-9.4-42.85-15.7-62.45-11.6 2.63-20.3 16.42-20.3 32.99 0 18.46 10.9 33.44 24.4 33.44 4.2 0 8.2-1.44 11.6-3.98" style="fill:#f58299;fill-opacity:1;fill-rule:nonzero;stroke:none" transform="matrix(.26794 0 0 -.26794 0 2093.333)"/><path d="M16300 2574.56c-5.2-19.66-10.4-39.62-14.9-56.55-11.7.94-22.4 13.22-24.8 29.51-2.8 18.17 5.8 34.56 19 36.54 7.7 1.14 15.2-2.67 20.7-9.5" style="fill:#f58299;fill-opacity:1;fill-rule:nonzero;stroke:none" transform="matrix(.26926 0 0 -.26926 0 2093.333)"/><path d="M16300 2873.1c0-18.91-11.2-34.3-25.1-34.3-13.8 0-25 15.39-25 34.3 0 18.96 11.2 34.29 25 34.29 13.9 0 25.1-15.33 25.1-34.29" style="fill:#f58299;fill-opacity:1;fill-rule:nonzero;stroke:none" transform="matrix(.26161 0 0 -.26161 0 2093.333)"/><path d="m16299.9 2677.28-24.7-21.33s-.5-1.88-1.4-5.28c-10.3 2.42-19.6 13.33-22.4 27.74-3.5 18.02 4.3 34.66 17.4 37.28 13.2 2.57 26.7-9.93 30.3-27.95.7-3.6.9-7.1.8-10.46" style="fill:#f58299;fill-opacity:1;fill-rule:nonzero;stroke:none" transform="matrix(.27007 0 0 -.27007 0 2093.333)"/><path d="M16300 2377.98c0-18.83-11.1-34.07-24.9-34.07-13.7 0-24.9 15.24-24.9 34.07 0 18.78 11.2 34.02 24.9 34.02 13.8 0 24.9-15.24 24.9-34.02" style="fill:#f58299;fill-opacity:1;fill-rule:nonzero;stroke:none" transform="matrix(.26337 0 0 -.26337 0 2093.333)"/><path d="M16300 2710.28c0-18.98-11.2-34.34-25.1-34.34-13.8 0-25.1 15.36-25.1 34.34 0 18.93 11.3 34.29 25.1 34.29 13.9 0 25.1-15.36 25.1-34.29" style="fill:#f58299;fill-opacity:1;fill-rule:nonzero;stroke:none" transform="matrix(.26131 0 0 -.26131 0 2093.333)"/><path d="M16300 2580.78c0-21.46-12.7-38.86-28.4-38.86s-28.4 17.4-28.4 38.86 12.7 38.86 28.4 38.86 28.4-17.4 28.4-38.86" style="fill:#f58299;fill-opacity:1;fill-rule:nonzero;stroke:none" transform="matrix(.26349 0 0 -.26349 0 2093.333)"/><path d="M16300 2469.97c-12.1-18.41-37.1-26.69-37.1-26.69s-.6-5.66-1.8-15.13c-74.2 21.78-240.8 75.46-257.3 94.36 40.5-11.91 218.8-40.58 296.2-52.54" style="fill:#e03b5a;fill-opacity:1;fill-rule:nonzero;stroke:none" transform="matrix(.26876 0 0 -.26876 0 2093.333)"/><path d="M16300 2677.26s-461.1 27.3-515.7 39.45c84.9-27.31 491.4-60.68 491.4-60.68z" style="fill:#e03b5a;fill-opacity:1;fill-rule:nonzero;stroke:none" transform="matrix(.27006 0 0 -.27006 0 2093.333)"/><path d="M15647.1 5561.1c0-1054.5-924.9-470.3-1807-1048-206.8-135.5-256.7 180.5-397.5 18-412.6-475.8-701.6-563.1-1204.4-458.5-2156.8 448.5-1031 5846.35 2378.9 3385.79 783-325.26 1030-842.79 1030-1897.29" style="fill:#261210;fill-opacity:1;fill-rule:nonzero;stroke:none" transform="matrix(.13333 0 0 -.13333 0 2093.333)"/><path d="M15539.4.102c.1.3-2602.1-.301-3019.1 0C12248.4 1337 13000.1 3597.9 13664.6 3693.6 15031.9 3306.1 16146.1 1522.1 15539.4.102" style="fill:#86113d;fill-opacity:1;fill-rule:nonzero;stroke:none" transform="matrix(.13333 0 0 -.13333 0 2093.333)"/><path d="M15020.7 4193.8c-73.9-40.1-134.9-94.3-185.2-156.9-86.7-107.3-142.2-239.1-178.7-367.1-60.2-211.1-68.4-411.5-77.9-472.9-42.1-273.1-659.7-129.8-1016.2 65.9-160.2 87.9-267.6 186.4-246.6 262.5-.1.8 295.1 1054 295.1 1054s1256.4-211.3 1409.5-385.5M15767.5 4994.9c78.3-168.6 54.2-253-174.6-259-255-32.2 6 602.3 6 602.3 2.8 9.4 122.9-244.8 168.6-343.3" style="fill:#973626;fill-opacity:1;fill-rule:nonzero;stroke:none" transform="matrix(.13333 0 0 -.13333 0 2093.333)"/><path d="M15610.9 4495c60.3-84.3 6.1-150.6-66.2-150.6-.5 0-1.1-.7-1.8-2-12.4-24.1-56.9-253-124.7-317.2-105.7-100.2-339.8-85.7-779.2 45.6l-873.6 214.2s-961.8 1086.3-682.7 2156.92c155.1 594.85 1034.5 781.57 1739.2 588.82 363.7-99.45 716.6-387.83 831.2-728.8 37.5-111.73 18.1-716.74 18.1-716.74-1.4-34.2-64.8-243.9-66.3-277.1-8.2-189.8 29.7-381.3 12.1-536-3.4-29.7-18.1-72.3 18-132.5.6-.6 1.2-1.2 1.6-1.8 34.2-37.8 21.8-142.8-25.7-142.8" style="fill:#973626;fill-opacity:1;fill-rule:nonzero;stroke:none" transform="matrix(.13333 0 0 -.13333 0 2093.333)"/><path d="M15387.5 5320.1c0-57.5 29.7-104.1 66.2-104.1 36.6 0 66.3 46.6 66.3 104.1s-29.7 104.2-66.3 104.2c-36.5 0-66.2-46.7-66.2-104.2" style="fill:#261310;fill-opacity:1;fill-rule:nonzero;stroke:none" transform="matrix(.13333 0 0 -.13333 0 2093.333)"/><path d="M14821.9 4019.2c-86.6-107.4-128.6-221.4-165.1-349.4-190.1 98.5-483.3 294.3-714.3 644.5 496.5-161.8 748.2-258.3 879.4-295.1" style="fill:#802b20;fill-opacity:1;fill-rule:nonzero;stroke:none" transform="matrix(.13333 0 0 -.13333 0 2093.333)"/><path d="M15574.8 5537c20.3-11.8 106.9 91.4 18.1 114.4-162.7 42.2-295.6 15.8-427.7-72.2-36.1-24.1-108.4-102.4-108.4-102.4 10.8-17.3 282.6 196.5 518 60.2" style="fill:#261310;fill-opacity:1;fill-rule:nonzero;stroke:none" transform="matrix(.13333 0 0 -.13333 0 2093.333)"/><path d="M14840 20.602c0 .296-1518.6-.2-1605.9 0-109 370.199-360.3 1319.298-348.5 1714.498 68.8 832.2 1089.3 988 1424.9 635.2 301-266.7 358.7-1520.902 529.5-2349.698" style="fill:#710f35;fill-opacity:1;fill-rule:nonzero;stroke:none" transform="matrix(.13333 0 0 -.13333 0 2093.333)"/><path d="M14961.6 4757.3c-62.8-81.8-215.1-70.4-340.3 25.6-125.1 96-175.7 240.1-113 321.9 62.8 81.9 215.1 70.4 340.3-25.6 125.1-95.9 175.7-240.1 113-321.9" style="fill:#802b20;fill-opacity:1;fill-rule:nonzero;stroke:none" transform="matrix(.13333 0 0 -.13333 0 2093.333)"/><path d="M15177.3 5296.1s234.9 96.3 379.4 102.4c38.1 1.6 48.2 78.3 48.2 78.3s-120.5-36.2-150.6-42.2c-94.5-18.9-277-114.4-277-114.4z" style="fill:#261310;fill-opacity:1;fill-rule:nonzero;stroke:none" transform="matrix(.13333 0 0 -.13333 0 2093.333)"/><path d="M15610.9 4495c60.3-84.3 6.1-150.6-66.2-150.6-.5 0-1.1-.7-1.8-2-70.5 56.2-148.8 128.5-251.2 200.8 180.7 18 228.9 72.3 344.9 94.6 34.2-37.8 21.8-142.8-25.7-142.8" style="fill:#64101e;fill-opacity:1;fill-rule:nonzero;stroke:none" transform="matrix(.13333 0 0 -.13333 0 2093.333)"/><path d="M15546.3 6258.93c-309.6-21.03-882.7-90.1-1076.8-281.15-192.2-189.15 12-508.46-341-628.14-86.2-29.2-178.8-203-198.7-404.52-5.5-55.52-383.6-423.49-429.4-462.82-658 167.45-1812.5 3475.54 1459.6 2721.8 305.1 221.34 1340-370.88 586.3-945.17" style="fill:#261210;fill-opacity:1;fill-rule:nonzero;stroke:none" transform="matrix(.13425 0 0 -.13425 0 2093.333)"/><path d="M14205.9 4841c-50.9-18.8-225.8-27.1-301.1-16 42.1 72.3 115.2 98.2 120.7 154.1 63.9 125 120.7 253.8 176 389.2 118.9-130.3 105.9-489.7 4.4-527.3" style="fill:#802b20;fill-opacity:1;fill-rule:nonzero;stroke:none" transform="matrix(.13333 0 0 -.13333 0 2093.333)"/><path d="M15099 7277.7s-825.2-1385.34-1024-1710.6c-198.7-325.2-493.9-1090.2-493.9-1090.2l-138.5 54.2s96.4 2198.49 1138.4 2951.38c162.6-48.18 385.5-90.34 518-204.78" style="fill:#86113d;fill-opacity:1;fill-rule:nonzero;stroke:none" transform="matrix(.13333 0 0 -.13333 0 2093.333)"/><path d="M14128.1 5479.5c-366.4 147.3-369.3-306.9-226.3-507.4 79.8-112.1 272.9-134.4 344.9-103.9 112.2 47.6 56.8 540.8-118.6 611.3" style="fill:#973626;fill-opacity:1;fill-rule:nonzero;stroke:none" transform="matrix(.13333 0 0 -.13333 0 2093.333)"/><path d="M14215.7 5084.5c17.5 8.8 59.4 63.1-1.9 78.4-149.1 37.1-19.3 89.3-78.4 88.2-65.6-1.3-66.7-35.7-60-77 6.6-41.3 91.6-114.1 140.3-89.6" style="fill:#802b20;fill-opacity:1;fill-rule:nonzero;stroke:none" transform="matrix(.13333 0 0 -.13333 0 2093.333)"/><path d="M14193.4 5320.1c13.2-3.5 24.5 72.1-45.4 105.7-234.8 112.9-331.1-117.9-253.9-317.5 37.5-96.9 164.6-175.1 177-160.9-109.9 114.2-264.9 310.6-86.1 429.2 128.7 85.3 188.9-51.4 208.4-56.5" style="fill:#802b20;fill-opacity:1;fill-rule:nonzero;stroke:none" transform="matrix(.13333 0 0 -.13333 0 2093.333)"/><path d="M14815.9 7121.09S13683.5 5049.1 13629.3 4886.5s-90.3-216.8-78.3-120.5c12.1 96.4 585.8 1407.76 650.5 1487.76 102.4 126.48 628 1131.01 704.7 1102.24 48.2-18.07-72.2-204.79-90.3-234.91M14285.8 6735.61c-295.1-469.81-680.6-1596.11-734.8-1758.81-54.2-162.6-12 48.2 0 144.6 12.1 96.4 355.4 1156.45 439.7 1349.2 65.2 149.09 579.8 968.37 656.5 939.61 48.2-18.07-342.7-644.86-361.4-674.6M15222.7 2480.4c-606.4-61.8-1990.9 304-2102 714.7 17 30.7 34.5 61.1 52.4 91.2 44.9 75.6 92.5 149.3 143 220.9 20.9 29.7 107.8 79.2 187.6 122.1 78.9 20.3 159.5 32.8 240.8 38.6 585.9-199.1 1065.8-595.9 1404-1076.9 25.6-36.4 50.3-73.3 74.2-110.6" style="fill:#710f35;fill-opacity:1;fill-rule:nonzero;stroke:none" transform="matrix(.13333 0 0 -.13333 0 2093.333)"/><path d="M15148.5 2591c-947 103.1-1698.9 227.1-1975.4 695.3 44.9 75.6 92.5 149.3 143 220.9 36 51.1 267.6 161 321.6 194.5 634.5-185.5 1152.3-600.8 1510.8-1110.7" style="fill:#973626;fill-opacity:1;fill-rule:nonzero;stroke:none" transform="matrix(.13333 0 0 -.13333 0 2093.333)"/><path d="M14235.1 4958.7c6.8.5 13.7.8 20.7.7 6.9-.3 14-.5 20.9-1.5 14.2-1.4 28.2-5.2 42.1-10.5 27.5-10.5 54.5-31.9 69.3-62.3s16.3-66.3 6.8-97.6c-4.6-15.9-11.7-30.9-21.2-44.7-9.4-13.8-21.3-26.3-36.2-36.4-15.7-10.5-31-16-46.9-19.9-15.9-4-32.2-5.1-48.1-4.5-31.7 1.6-61.7 10.9-88 25.7-26.2 14.8-49.6 34.8-65.9 60.8-8 13-14.3 27.7-15.6 43.8-.6 7.9.2 16.1 2.6 23.6 2.5 7.4 6.7 14.1 11.9 19.1l5.1-3.2c-7.5-25.6 7.6-45.1 24.4-60.3 17.5-15.3 38.7-26.7 60.5-34.5 21.9-7.7 44.6-11.8 66.1-11.2 10.7.1 21.1 1.9 31 4.4 9.9 2.6 19.7 6.8 26.2 11.1 14.7 9.5 27.6 26.8 35.1 45.5 7.3 19 9.4 39.6 3.9 58.6-5.2 19.2-18.4 37.3-37.6 51.7-19.1 14.8-42.9 25.7-68 35.7z" style="fill:#d47a19;fill-opacity:1;fill-rule:nonzero;stroke:none" transform="matrix(.13333 0 0 -.13333 0 2093.333)"/><path d="M15753.2 5162.9s165.8-437.8 55.3-503.8c-110.5-65.9-12.3-227.9-178.1-377.8s-67.5-407.8-288.6-359.9c-169.2 36.8-785.9 102-1056.1 299.9 135.1 72 313.4 720.8 233.5 984.7 565.4-129.1 1234-43.1 1234-43.1" style="fill:#2c193f;fill-opacity:1;fill-rule:nonzero;stroke:none" transform="matrix(.13333 0 0 -.13333 0 2093.333)"/><path d="M15434 3945.4c8.1-1.6 15.7-2.7 22.9-3.6-24.6-23.8-61.1-33.4-121.2-20.4-169.2 36.8-785.9 102-1056.1 299.9 135.1 72 313.3 720.7 233.5 984.7 565.3-129.1 1234-43.1 1234-43.1s15.6-41.2 34.1-100.4c-180.5-15.9-709.4-49.9-1169.8 45.1 79.8-238.7-98.4-825.7-233.5-890.8 270.2-179.1 886.9-238.1 1056.1-271.4" style="fill:#140f1e;fill-opacity:1;fill-rule:nonzero;stroke:none" transform="matrix(.13333 0 0 -.13333 0 2093.333)"/><path d="M14279.6 5414.9s172-165.9 233.5-208.9c36.9 0 24.6-129.1 24.6-129.1l-312.1 309.5zM14334.9 4278.1c-264.2 325.7-282.7 577.6-301.1 602.2-36.9 18.4-55.3 24.6-55.3 24.6s30.7-405.6 294.9-682.1c25.5-26.6 61.5 34.6 61.5 55.3" style="fill:#140f1e;fill-opacity:1;fill-rule:nonzero;stroke:none" transform="matrix(.13333 0 0 -.13333 0 2093.333)"/><path d="M16116.7 2269.38s117.7-156.25 150.5-613.43-108-600.24-432.1-667.758c-202-42.083-603.8 8.007-605.7 23.448-2 15.43 476.4 1630.04 887.3 1257.74" style="fill:#0c080a;fill-opacity:1;fill-rule:nonzero;stroke:none" transform="matrix(.41632 0 0 -.41632 0 2093.333)"/><path d="M16269 2.23 15225.7 0c-3.5 187.668 19.3 568.856 55.9 751.028 8.2 40.766 17.7 81.015 28.5 120.651 23.4 85.864 53.3 168.631 90.7 246.601 27.7 57.71 59.4 112.77 95.8 164.59.3.38.6.77.9 1.16 11.6 16.55 86.5 52.05 103.9 62.88 41-11.99 80.5-26.96 118.4-44.52 23.8-11.02 46.9-23.11 69.4-36.11 15-8.69 29.7-17.81 44.1-27.28 25.2-16.59 49.4-34.43 72.7-53.35 31-25.15 60.3-52.24 87.7-80.88 4.8-4.95 9.5-9.93 14.1-15 44.2-48.01 83.3-100.189 117-155.017C16300 649.419 16271.4 9.02 16269 2.23" style="fill:#688ccf;fill-opacity:1;fill-rule:nonzero;stroke:none" transform="matrix(.41243 0 0 -.41243 0 2093.333)"/><path d="M16300 1529.63c-24.3-13.2-44.3-31-60.8-51.52-28.5-35.23-46.7-78.54-58.7-120.54-19.8-69.35-22.4-135.11-25.6-155.31-13.8-89.64-216.6-42.59-333.6 21.67-52.6 28.87-87.9 61.21-81 86.16 0 .3 96.9 346.12 96.9 346.12s412.5-69.41 462.8-126.58" style="fill:#f3674a;fill-opacity:1;fill-rule:nonzero;stroke:none" transform="matrix(.40607 0 0 -.40607 0 2093.333)"/><path d="M16277 1749.36c23-34.43 11.1-55-54.4-66.14-82.4-10.36-5.8 190.62-5.8 190.62.9 3.02 40.8-95.29 60.2-124.48" style="fill:#f3674a;fill-opacity:1;fill-rule:nonzero;stroke:none" transform="matrix(.4129 0 0 -.4129 0 2093.333)"/><path d="M16272.2 1606.65c19.6-27.34 2-48.78-21.4-48.78-.2 0-.4-.23-.6-.68-4-7.78-18.4-81.93-40.4-102.72-34.2-32.46-110.1-27.8-252.4 14.74l-283 69.42s-311.6 351.89-221.2 698.7c50.3 192.7 335.2 253.18 563.4 190.75 117.9-32.22 234.2-96.37 271.3-206.83 12.1-36.19 3.9-261.45 3.9-261.45-.5-11.07-21-79-21.5-89.76-2.7-61.47 9.6-123.51 3.9-173.65-1.1-9.59-5.8-23.43 5.8-42.93.2-.16.4-.35.6-.55 11-12.24 7-46.26-8.4-46.26" style="fill:#f3674a;fill-opacity:1;fill-rule:nonzero;stroke:none" transform="matrix(.4116 0 0 -.4116 0 2093.333)"/><path d="M16261.4 1881.23c-1.3-17.86 6-32.94 16.2-33.72 10.3-.79 19.7 13.07 21.1 30.93 1.3 17.86-5.2 23.41-15.5 24.18s-20.4-3.53-21.8-21.39" style="fill:#261310;fill-opacity:1;fill-rule:nonzero;stroke:none" transform="matrix(.41004 0 0 -.41004 0 2093.333)"/><path d="M16300 1478.19c-28.5-35.38-42.4-72.99-54.4-115.16-62.7 32.47-159.4 96.99-235.5 212.48 163.7-53.38 246.6-85.19 289.9-97.32" style="fill:#d9513e;fill-opacity:1;fill-rule:nonzero;stroke:none" transform="matrix(.40444 0 0 -.40444 0 2093.333)"/><path d="M16273.2 1945.7c7.2-2.46 26.8 23.77-2 31.24-52.7 13.67-78.1 7.81-134.7-21.48-12.5-6.47-27.4-27.34-27.4-27.34 3.5-5.59 84 44.92 164.1 17.58" style="fill:#261310;fill-opacity:1;fill-rule:nonzero;stroke:none" transform="matrix(.41128 0 0 -.41128 0 2093.333)"/><path d="M16300 2.277h-458.4c-62.2 209.529-164.5 620.302-164.5 698.286 0 73.66 14.6 152.6 53.6 213.488 18.6 29.042 42.6 53.992 73.2 72.308 24.8 14.821 53.9 25.341 87.8 30.231.4.03.7.1 1 .16 128 18.06 194.4-42.998 231.8-123.06 34.9-74.716 44.5-166 55.4-224.94 9.8-52.606 87.4-459.551 120.1-666.473" style="fill:#4d7ec9;fill-opacity:1;fill-rule:nonzero;stroke:none" transform="matrix(.40402 0 0 -.40402 0 2093.333)"/><path d="M16279.4 1714.53c-20.6-26.89-70.6-23.11-111.7 8.41-41.1 31.48-57.7 78.83-37.1 105.69 20.6 26.85 70.6 23.11 111.7-8.41s57.7-78.83 37.1-105.69" style="fill:#f46b4d;fill-opacity:1;fill-rule:nonzero;stroke:none" transform="matrix(.4061 0 0 -.4061 0 2093.333)"/><path d="M16168.3 1864.51s68.5 23.46 119.3 23.46c12.4 0 7.9 25.42 7.9 25.42s-19.6-7.33-23.5-7.82c-62.6-7.82-103.7-33.24-103.7-33.24z" style="fill:#261310;fill-opacity:1;fill-rule:nonzero;stroke:none" transform="matrix(.41067 0 0 -.41067 0 2093.333)"/><path d="M16280.5 1607.46c19.5-27.35 1.9-48.8-21.5-48.8q-.3 0-.6-.69c-22.8 18.25-24.8 35.82-58 59.25 58.6 5.83 50.8 29.27 88.4 36.53 11.1-12.25 7.1-46.29-8.3-46.29" style="fill:#f46b4d;fill-opacity:1;fill-rule:nonzero;stroke:none" transform="matrix(.41139 0 0 -.41139 0 2093.333)"/><path d="M16220.4 2186s-149.9-89.23-322.5-126.25c-150.6-32.32-123.4-123.65-145-190.2-2.2-6.81-4.9-13.36-8.4-19.58-21.7-38.71-33-95.11-39.4-160.67-13.5-139.67 9.6-517.91-95.4-626.91-22-22.86-339-173.722-467.6-17.83-165.2 200.07-64.3 758.87-26.9 921.96 139.8 609.9 655.4 585.82 957.5 495.3 58.1-17.38 227.3-110.71 147.7-275.82" style="fill:#0c080a;fill-opacity:1;fill-rule:nonzero;stroke:none" transform="matrix(.41346 0 0 -.41346 0 2093.333)"/><path d="M16263.3 1754.2c-11.9-4.39-22.1-10.02-42.7-9.46 6.6 67.72 18.2 125.97 40.7 165.95 3.6 6.43 6.4 13.19 8.7 20.22 30-50.11 24.4-165.18-6.7-176.71" style="fill:#f46b4d;fill-opacity:1;fill-rule:nonzero;stroke:none" transform="matrix(.40032 0 0 -.40032 0 2093.333)"/><path d="M16223.2 1978.13c-121.9 49.03-122.9-102.1-75.3-168.86 26.5-37.27 90.8-44.72 114.8-34.54 37.3 15.81 18.9 179.95-39.5 203.4" style="fill:#f3674a;fill-opacity:1;fill-rule:nonzero;stroke:none" transform="matrix(.40065 0 0 -.40065 0 2093.333)"/><path d="M16280.2 1849.84c5.8 2.94 19.8 21.07-.6 26.14-49.7 12.37-6.5 29.79-26.2 29.41-21.8-.43-22.2-11.91-20-25.68 2.2-13.73 30.6-38.03 46.8-29.87" style="fill:#d9513e;fill-opacity:1;fill-rule:nonzero;stroke:none" transform="matrix(.39997 0 0 -.39997 0 2093.333)"/><path d="M16291.8 1930.65c4.4-1.15 8.2 24.06-15.1 35.28-78.4 37.7-110.5-39.36-84.8-105.94 12.5-32.34 55-58.44 59.1-53.7-36.7 38.11-88.4 103.65-28.7 143.22 42.9 28.46 63-17.16 69.5-18.86" style="fill:#d9513e;fill-opacity:1;fill-rule:nonzero;stroke:none" transform="matrix(.3995 0 0 -.3995 0 2093.333)"/><path d="M16300 1109.66c-3-.16-232.6-13.76-320 49.87 9.7 27.13 16.9 57.51 22.5 90.13.2 1.35.4 2.7.7 4.09 20.8 14.81 46.9 27.68 74.2 35.65 15.2-8.83 30.3-18.11 44.9-27.79 59.8-39.43 114.5-85.59 163.4-136.64 4.5-5.3 9.3-10.44 14.3-15.31" style="fill:#f3674a;fill-opacity:1;fill-rule:nonzero;stroke:none" transform="matrix(.40504 0 0 -.40504 0 2093.333)"/><path d="M16203 1828.45s-239.3-9.89-310.6-55.42c-71.2-45.5-83.1-241.36-57.4-276.97 25.8-35.62 203.8-94.99 253.3-94.99s211.7 277.01 211.7 277.01z" style="fill:#efefed;fill-opacity:1;fill-rule:nonzero;stroke:none" transform="matrix(.4141 0 0 -.4141 0 2093.333)"/><path d="M16300 1826.37c-42.3-2.17-240.5-14.5-304.4-55.3-71.7-45.79-83.6-242.75-57.7-278.56 1.2-1.69 2.8-3.4 4.6-5.18-9.6 6.05-16.7 11.82-20.5 17.12-25.9 35.82-14 232.78 57.7 278.53 71.6 45.79 312.3 55.73 312.3 55.73z" style="fill:#d5d3c2;fill-opacity:1;fill-rule:nonzero;stroke:none" transform="matrix(.41178 0 0 -.41178 0 2093.333)"/><path d="m16145.1 1784.14 143 21.85 11.9-19.85-141-19.88z" style="fill:#d5d3c2;fill-opacity:1;fill-rule:nonzero;stroke:none" transform="matrix(.41243 0 0 -.41243 0 2093.333)"/><path d="M16300 1676.98s-212.7-10.89-336.3 3.96" style="fill:none;stroke:#d5d3c2;stroke-width:5.93521023;stroke-linecap:butt;stroke-linejoin:miter;stroke-miterlimit:10;stroke-dasharray:none;stroke-opacity:1" transform="matrix(.41412 0 0 -.41412 0 2093.333)"/><path d="M16300 1418.44s-80.3 23.98-172.4 110.22" style="fill:none;stroke:#d5d3c2;stroke-width:6.01330996;stroke-linecap:butt;stroke-linejoin:miter;stroke-miterlimit:10;stroke-dasharray:none;stroke-opacity:1" transform="matrix(.40874 0 0 -.40874 0 2093.333)"/><path d="M16291 1558.03c-3.9-17.85-13.4-32.87-26-43.38-4.7-3.99-9.9-7.33-15.4-9.89-3.8-1.82-7.8-3.28-11.9-4.32-4.5-1.17-9-1.85-13.7-2.01-3.6-.16-7.2 0-10.9.55-1.7.19-3.5.52-5.2.91-2.5.55-4.9 1.23-7.3 2.08-3.5 1.23-6.8 2.72-10 4.57-4.1 2.24-7.9 5-11.4 8.14-3.3 2.86-6.2 6.07-8.8 9.57-3.9 5.07-7.1 10.68-9.6 16.71-5.6 14.08-7.3 30.37-3.6 46.79 9 40.32 46.2 66.34 83.1 58.13 37-8.2 59.7-47.52 50.7-87.85" style="fill:#8a8d8d;fill-opacity:1;fill-rule:nonzero;stroke:none" transform="matrix(.41097 0 0 -.41097 0 2093.333)"/><path d="m16299.6 1590.93-19-85.72c-1.8.2-3.6.52-5.3.92-2.5.55-5 1.23-7.4 2.08l19 85.52c.9 3.81 4.4 6.25 7.9 5.47 1.7-.36 3.1-1.5 4-3s1.2-3.38.8-5.27" style="fill:#565a5b;fill-opacity:1;fill-rule:nonzero;stroke:none" transform="matrix(.40927 0 0 -.40927 0 2093.333)"/><path d="m16299.6 1589.95-16.7-74.82c-4.1 2.25-7.9 5.03-11.4 8.19l15.4 69.43c.9 3.86 4.4 6.3 7.9 5.52 1.7-.39 3.1-1.53 4-3 .9-1.54 1.2-3.4.8-5.32" style="fill:#565a5b;fill-opacity:1;fill-rule:nonzero;stroke:none" transform="matrix(.40864 0 0 -.40864 0 2093.333)"/><path d="m16299.6 1575.15-15.7-70.44c-4.4-1.17-9-1.85-13.7-2.01l16.8 75.29c.8 3.8 4.3 6.24 7.8 5.46 1.8-.39 3.1-1.53 4-2.99.8-1.53 1.2-3.39.8-5.31" style="fill:#565a5b;fill-opacity:1;fill-rule:nonzero;stroke:none" transform="matrix(.4098 0 0 -.4098 0 2093.333)"/><path d="m16299.6 1557.07-8.9-40.03c-4.8-4-10-7.34-15.5-9.91l11.8 52.74c.8 3.8 4.3 6.24 7.8 5.49 1.8-.39 3.1-1.53 4-2.99.9-1.53 1.2-3.41.8-5.3" style="fill:#565a5b;fill-opacity:1;fill-rule:nonzero;stroke:none" transform="matrix(.41033 0 0 -.41033 0 2093.333)"/><path d="m16299.6 1586.6-11.4-51.24c-3.9 5.1-7.1 10.75-9.6 16.83l8.3 37.23c.8 3.82 4.4 6.27 7.9 5.49 1.7-.4 3.1-1.51 4-3.01s1.2-3.4.8-5.3" style="fill:#565a5b;fill-opacity:1;fill-rule:nonzero;stroke:none" transform="matrix(.408 0 0 -.408 0 2093.333)"/><path d="m16300 1788.6-212.4 147.68-2.8-16.11 192.9-155.84z" style="fill:#4d7ec9;fill-opacity:1;fill-rule:nonzero;stroke:none" transform="matrix(.405 0 0 -.405 0 2093.333)"/><path d="m16300 1593.61-4.1-34.53-180 200.59 25.6.6z" style="fill:#4d7ec9;fill-opacity:1;fill-rule:nonzero;stroke:none" transform="matrix(.40314 0 0 -.40314 0 2093.333)"/><path d="M7105.48 13.7H3363.22c-137.67 1522.9-180.3 2910.3 804.9 4230.4 42.66 57.1 78.03 118.8 118.66 177.1 1.62 2.4 3.4 4.8 5.18 7.2.97 1.5 1.94 2.9 2.99 4.3 42.34 59.1 315.02 186.5 378.64 225.3 9.23-2.7 18.46-5.4 27.68-8.1 425.82-127.9 781.23-358.9 1073.99-655.3 87.09-88.1 168.6-182.1 244.76-280.9 16.36-21.2 31.41-43.5 48.41-64.4C7182.49 2276.3 7103.86 52.602 7105.48 13.7" style="fill:#70cc88;fill-opacity:1;fill-rule:nonzero;stroke:none" transform="matrix(.13333 0 0 -.13333 0 2093.333)"/><path d="M6301.9 5228c-64.31-34.4-184.19-115.1-248.66-191.9-22.64-26.9-38.49-53.3-42.68-77.1-28.15-159.2-56.29-230.9-131.02-326.4-2.1-2.7-4.28-5.5-6.44-8.2-100.35-234.4-90.08-597.9-101.29-669-49.63-316.4-766.75-32.5-1186.51 194.2-188.54 101.8-315.08 215.9-290.33 304-.08.9 347.49 1221 347.49 1221S6121.68 5429.8 6301.9 5228M7227.1 6117.03c94.99-190.32 15.7-207.19-223.1-247.07-300.25-37.26-21.27 683.76-21.27 683.76 3.33 10.85 155.84-259.33 244.37-436.69" style="fill:#f68556;fill-opacity:1;fill-rule:nonzero;stroke:none" transform="matrix(.13333 0 0 -.13333 0 2093.333)"/><path d="M7048.1 5732.42c31.04-62.82-3.26-135.92-51.07-135.92 1.3-1.5 2.6-3.3 3.83-5.2 28.93-42.5 57.73-181.5-87.54-174.7-14.69-27.8 1.81-326.4-77.99-400.7-124.51-116.1-465.49-82.5-982.78 69.6 0 0-789.83 135.5-1028.58 248.2-614.88 1120.06-872.88 1093.94-655.83 2311.1 182.61 1023.92 2411.14 1132.11 2757.04 178.02 46.67-128.54 142.67-983.05 142.67-983.05-1.59-39.58-76.32-282.51-78.06-320.95-9.62-219.81 35.01-441.74 14.18-620.98-3.91-34.3 12.15-109.82 41.09-159.65 1.09-1.92 2.1-3.84 3.04-5.77" style="fill:#f68556;fill-opacity:1;fill-rule:nonzero;stroke:none" transform="matrix(.13333 0 0 -.13333 0 2093.333)"/><path d="M6925.55 6776.02c52.09-16.09 131.26 130.39 23.37 136.89-112.43 6.77-245.94 4.55-328.52-24.96-172.67-61.69-232.56-222.18-232.56-222.18 2.33-3.66 23.78-21.01 42.58-12.43 83.77 38.26 255.71 196.62 495.13 122.68" style="fill:#976d46;fill-opacity:1;fill-rule:nonzero;stroke:none" transform="matrix(.13333 0 0 -.13333 0 2093.333)"/><path d="M6173.05 0H4410.02c-121.82 379.902-202.8 529.699-274.44 785.602C2956.21 3837 5401.48 3506.6 5589.1 2956.9 5817.84 2492.4 6011.17 1019.8 6173.05 0" style="fill:#86d498;fill-opacity:1;fill-rule:nonzero;stroke:none" transform="matrix(.13333 0 0 -.13333 0 2093.333)"/><path d="M6237 5743.96c-77.85-99.86-260.43-90.76-407.79 20.41-147.35 111.18-203.69 282.28-125.84 382.17 77.86 99.9 317.97 131.91 465.33 20.75 147.36-111.18 146.16-323.44 68.3-423.33" style="fill:#e4784f;fill-opacity:1;fill-rule:nonzero;stroke:none" transform="matrix(.13333 0 0 -.13333 0 2093.333)"/><path d="M6507.58 6456.04c248.16 83.13 313.27 132.95 400.1 118.73 44.23-7.26 43.4 42.7 39.59 83.61-104.71-5.32-169.82 1.8-446.78-181.41-2.33-5.02 1.79-22.71 7.09-20.93" style="fill:#151516;fill-opacity:1;fill-rule:nonzero;stroke:none" transform="matrix(.13333 0 0 -.13333 0 2093.333)"/><path d="M6020.03 3713.7c-776.36-14.7-1507.37 335.8-1851.89 530.4 40.44 64.2 82.69 127 126.83 188.6 42.32 59.1 315 186.5 378.59 225.3 9.27-2.7 18.52-5.4 27.71-8.1 552.52-166 986.47-505.4 1318.76-936.2" style="fill:#f68556;fill-opacity:1;fill-rule:nonzero;stroke:none" transform="matrix(.13333 0 0 -.13333 0 2093.333)"/><path d="M5988.83 1144.3 4135.55 785.602c-37.51 127.597-73.89 254.298-108.22 377.298l1894.97 366.8c21.28-123 43.69-252.5 66.53-385.4M6066.2 694.902 4267.24 346.699c-20.07 65.602-40.14 131.903-60.14 198.301l1824.14 353.102c11.63-67.602 23.33-135.5 34.96-203.2" style="fill:#b8e5bf;fill-opacity:1;fill-rule:nonzero;stroke:none" transform="matrix(.13333 0 0 -.13333 0 2093.333)"/><path d="M6892.12 6514.21c-8.04-53.36-39.92-92.92-71.21-88.36-31.3 4.56-50.15 51.52-42.11 104.88 8.04 53.37 39.92 92.93 71.21 88.37 31.3-4.56 50.15-51.52 42.11-104.89" style="fill:#151516;fill-opacity:1;fill-rule:nonzero;stroke:none" transform="matrix(.13333 0 0 -.13333 0 2093.333)"/><path d="M6053.24 5036.1c-22.64-26.9-38.49-53.3-42.68-77.1-28.15-159.2-56.29-230.9-131.02-326.4-266.03 258-520.12 417.1-781.94 770.6 496.23-159.1 785.12-301.6 955.64-367.1" style="fill:#e4784f;fill-opacity:1;fill-rule:nonzero;stroke:none" transform="matrix(.13333 0 0 -.13333 0 2093.333)"/><path d="M7067.83 7535.22c-113.72-271.79-232.38-194.25-719.72-146.01-870.19 86.12-235.13-734.12-679.73-775.73-75.2-7.04-143.59-35.13-206.4-79.49-156.54-110.15-278.76-320.91-386.49-558.32-214.97-473.37-372.48-1052.37-630.2-1148.97-1124.33 493.6-1175.65 3400.56 2.6 3478.99 684.83 398.23 1377.75 606.24 2051.9 397.9 956.06-295.43 656.59-956.87 568.04-1168.37" style="fill:#976d46;fill-opacity:1;fill-rule:nonzero;stroke:none" transform="matrix(.13333 0 0 -.13333 0 2093.333)"/><path d="M5397.96 5954.95c-42.17-15.29-180.58-2.99-322.47 20.72 107.73 237.41 229.95 448.17 386.49 558.32 73.9-213.43 43.39-539.94-64.02-579.04" style="fill:#e4784f;fill-opacity:1;fill-rule:nonzero;stroke:none" transform="matrix(.13333 0 0 -.13333 0 2093.333)"/><path d="M5069.64 6838.52c-249.26-62.46-225.32-477.48-73.2-687.48 104.87-144.77 358.38-173.59 452.92-134.17 92.22 38.47 98.17 302.68 33.2 517.19-38.78 128.07-130.37 375.25-412.92 304.46" style="fill:#f68556;fill-opacity:1;fill-rule:nonzero;stroke:none" transform="matrix(.13333 0 0 -.13333 0 2093.333)"/><path d="M5408.67 6296.26c23 11.39 78.03 81.6-2.47 101.29-195.85 47.91-25.35 115.39-103.03 113.91-86.13-1.65-87.53-46.12-78.78-99.44 8.76-53.33 120.37-147.4 184.28-115.76" style="fill:#e4784f;fill-opacity:1;fill-rule:nonzero;stroke:none" transform="matrix(.13333 0 0 -.13333 0 2093.333)"/><path d="M5359.42 6596.11c17.29-4.43 43.41 64.07-50.64 128.13-195.34 177.95-423.77-139.42-322.38-397.18 49.22-125.16 216.11-226.16 232.37-207.89-144.33 147.55-347.84 401.26-113.01 554.43 168.91 110.19 228.02-70.89 253.66-77.49M6997.03 5596.5c1.3-1.5 2.6-3.3 3.83-5.2-154.74-14.9-291.82 14-413.9 47.4 222.39 44.2 461.14 93.72 461.14 93.72 31.04-62.82-3.26-135.92-51.07-135.92" style="fill:#e4784f;fill-opacity:1;fill-rule:nonzero;stroke:none" transform="matrix(.13333 0 0 -.13333 0 2093.333)"/><path d="m5576.42 6510.99 535.98-372.57v-39.22l-542.52 398.72zM5406.47 5922.71c71.9-451.01 516.38-712.51 516.38-712.51l32.68-71.9s-535.98 320.3-562.13 790.95c13.07-6.54 6.54-6.54 13.07-6.54" style="fill:#d9f3f9;fill-opacity:1;fill-rule:nonzero;stroke:none" transform="matrix(.13333 0 0 -.13333 0 2093.333)"/><path d="M7367.39 5805.06c0-58.24-25.03-60.85-34.51-78.44-11.05-20.58-27.71-34.92-47.78-93.22-8.96-26.1-18.63-61.1-28.83-109.4-12.68-60.3 26.15-156.9-45.43-179.4-41.43-13.1-26.6-82.1-42.16-120.3-52.16-129.1-121.44-233.5-213.08-275.5-156.87-71.9-640.57-39.2-1065.43 228.8 183.01 137.2 267.99 836.63 209.16 960.82 346.43-39.22 705.87-87.79 1078.51 71.89 0 0 189.55-248.38 189.55-405.25" style="fill:#7dd5f7;fill-opacity:1;fill-rule:nonzero;stroke:none" transform="matrix(.13333 0 0 -.13333 0 2093.333)"/><path d="M6177.77 6066.51c56.86-120.06-20.66-777.71-191.26-945.31-32.35 17.5-64.51 36.3-96.34 56.4 183.01 137.2 267.99 836.63 209.16 960.82 346.43-39.22 705.87-87.79 1078.51 71.89 0 0 24.24-32.67 54.51-81.83-364.14-147.66-715.61-100.34-1054.58-61.97" style="fill:#d9f3f9;fill-opacity:1;fill-rule:nonzero;stroke:none" transform="matrix(.13333 0 0 -.13333 0 2093.333)"/><path d="M7332.88 5726.62c-11.05-20.58-27.71-34.92-47.78-93.22l-512.52 93.22zM7210.84 5344.6c-12.61-41.6-26.6-82.1-42.16-120.3l-657.56 286.6z" style="fill:#60c4dc;fill-opacity:1;fill-rule:nonzero;stroke:none" transform="matrix(.13333 0 0 -.13333 0 2093.333)"/><path d="M16300 48.855h-1444.6c-37.6 482.784-40.9 994.435 170.4 1438.295 15.9 33.46 33.1 66.53 51.5 99.17 18.4 32.59 38.1 64.8 59.2 96.57 13.4 20.07 27.3 39.98 41.7 59.69 16.9 23.06 31 47.96 47.1 71.44.7.98 1.4 1.97 2.1 2.91.4.59.8 1.18 1.2 1.76 16.8 23.88 125.1 75.29 150.3 90.92 3.7-1.02 7.4-2.16 11.1-3.26 12.3-3.77 24.6-7.77 36.6-11.98 2.2-.78 4.4-1.57 6.6-2.35 2.5-.87 4.9-1.77 7.3-2.63 3-1.1 5.9-2.16 8.9-3.3 1.7-.63 3.3-1.26 4.9-1.89 2.5-.94 4.9-1.88 7.3-2.83 13.4-5.26 26.6-10.8 39.5-16.57 2.2-.94 4.4-1.92 6.5-2.91 1.8-.82 3.7-1.64 5.5-2.51 2.6-1.18 5.2-2.43 7.8-3.65 6-2.83 11.9-5.7 17.8-8.68 2.6-1.26 5.1-2.51 7.6-3.85 5.5-2.75 10.9-5.57 16.3-8.48 2.8-1.45 5.4-2.87 8.1-4.36 7.3-4.01 14.5-8.05 21.7-12.21 2.5-1.46 5-2.91 7.4-4.36 3-1.73 5.9-3.46 8.8-5.27 2.6-1.57 5.3-3.18 7.9-4.83q14.1-8.715 27.9-17.91c5.2-3.49 10.3-6.99 15.5-10.56 16.1-11.19 31.8-22.82 47.3-34.91 1.6-1.3 3.3-2.6 4.9-3.89 1.6-1.22 3.1-2.44 4.7-3.69 2.5-2.05 5-4.09 7.6-6.17.1-.12.3-.27.5-.43 2.5-2.04 5.1-4.16 7.6-6.25 2.5-2.16 5.1-4.32 7.7-6.52 1.7-1.53 3.5-3.06 5.3-4.55 3.3-2.87 6.7-5.77 10-8.68 2.3-2.12 4.7-4.2 7-6.32 4.5-4.01 8.9-8.05 13.3-12.18 2.2-1.96 4.3-3.93 6.3-5.93.2-.15.4-.31.6-.51 2.1-1.96 4.1-3.93 6.2-5.93 1.3-1.22 2.6-2.47 3.9-3.77 1.8-1.73 3.6-3.49 5.4-5.22 5.5-5.5 11-11 16.5-16.54.6-.66 1.2-1.29 1.8-1.92 3.6-3.69 7.2-7.38 10.7-11.15 2.1-2.2 4.2-4.4 6.2-6.6 2.1-2.2 4.1-4.44 6.1-6.68 6.5-6.99 12.9-14.14 19.2-21.32 1.6-1.93 3.3-3.85 5-5.78 7.6-8.79 15.1-17.71 22.4-26.74 2-2.32 3.8-4.67 5.7-7.03 2.9-3.54 5.7-7.11 8.5-10.68 2.8-3.54 5.5-7.07 8.3-10.61 1.7-2.24 3.4-4.51 5.1-6.75 6.5-8.6 12.9-17.24 19.2-26 364.4-505.131 340.4-875.043 367.1-1453.615" style="fill:#9c554c;fill-opacity:1;fill-rule:nonzero;stroke:none" transform="matrix(.3395 0 0 -.3395 0 2093.333)"/><path d="M16300 2176.38c-26-14.14-74.4-47.29-100.4-78.77-9.2-11.06-15.6-21.93-17.3-31.67-11.3-65.39-22.7-94.83-52.9-134.06-.8-1.08-1.7-2.2-2.6-3.32-40.5-96.22-36.4-245.5-40.9-274.7-20.1-129.9-309.7-13.34-479.3 79.73-76.2 41.82-127.3 88.64-117.3 124.83 0 .4 140.4 501.33 140.4 501.33s597.5-100.52 670.3-183.37" style="fill:#9c554c;fill-opacity:1;fill-rule:nonzero;stroke:none" transform="matrix(.33379 0 0 -.33379 0 2093.333)"/><path d="M16300 1565.57c-315.8-6.12-613.2 138.82-753.4 219.31 16.5 26.51 33.7 52.5 51.7 77.96 17.2 24.46 128.1 77.12 154 93.17 3.7-1.09 7.5-2.26 11.2-3.38 224.8-68.59 401.3-208.94 536.5-387.06" style="fill:#9c554c;fill-opacity:1;fill-rule:nonzero;stroke:none" transform="matrix(.33146 0 0 -.33146 0 2093.333)"/><path d="M16300 0h-1444.3c-37.6 482.677-44.4 1043.06 166.8 1486.82 15.9 33.46 33 66.52 51.5 99.14 18.3 32.59 38.1 64.79 59.2 96.56 65.9-27.88 253.5-97.26 506.8-125.34 79.7-8.83 165.8-13.62 256.8-11.7 2.7-3.53 5.5-7.06 8.2-10.6 1.7-2.24 3.5-4.51 5.2-6.75 6.5-8.6 12.9-17.24 19.2-25.99C16293.7 997.118 16273.2 578.482 16300 0" style="fill:#761919;fill-opacity:1;fill-rule:nonzero;stroke:none" transform="matrix(.33958 0 0 -.33958 0 2093.333)"/><path d="M16267 2484.57c33-49.48.4-89-93.6-104.98-118.3-14.92-8.4 273.8-8.4 273.8 1.3 4.35 74.1-126.91 102-168.82" style="fill:#9c554c;fill-opacity:1;fill-rule:nonzero;stroke:none" transform="matrix(.34226 0 0 -.34226 0 2093.333)"/><path d="M16253.3 2260.22v-.05c46.7-91.8-41.1-80.33-41.2-80.49-6.1-11 8.5-101.76-23.1-131.68-49.3-46.71-184.3-33.2-389.1 28.04l-407.3 99.85s-448.4 506.46-318.3 1005.59c72.3 277.34 482.3 364.37 810.9 274.53 169.5-46.38 296.2-123.18 349.7-282.15 17.4-52.08 46.2-391.81 46.2-391.81-.6-15.94-30.2-113.7-30.9-129.18-3.8-88.46 27.1-176.92 18.9-249.06-1.6-13.81 3.6-38.02 9.3-55.01 2.3-3.92 4.1-7.9 5.7-11.91 12.8-33.63-.1-68.36-30.8-76.67" style="fill:#9c554c;fill-opacity:1;fill-rule:nonzero;stroke:none" transform="matrix(.34052 0 0 -.34052 0 2093.333)"/><path d="M16243.2 2748.9c10.4-3.54 56.8 51.85 14.1 54.47-44.6 2.73-111.4 11.89-144.2 0-68.4-24.85-101.8-92.46-101.8-92.46.9-1.48 9.4-8.47 16.9-5.01 33.2 15.41 120.9 75.14 215 43" style="fill:#0a0909;fill-opacity:1;fill-rule:nonzero;stroke:none" transform="matrix(.34029 0 0 -.34029 0 2093.333)"/><path d="M16300 5.488h-731.5c-5 14.02-17.1 72.787-22.6 87.648-584 1627.164 476.4 1320.924 545.8 1068.914 62.6-227.611 148.6-782.177 208.3-1156.562" style="fill:#9c554c;fill-opacity:1;fill-rule:nonzero;stroke:none" transform="matrix(.33285 0 0 -.33285 0 2093.333)"/><path d="M16268.5 2442.51c-31.5-41.06-105.3-37.3-164.9 8.4s-82.4 116.04-50.9 157.1c31.5 41.07 105.3 37.31 164.9-8.39s82.4-116.04 50.9-157.11" style="fill:#8c4943;fill-opacity:1;fill-rule:nonzero;stroke:none" transform="matrix(.33339 0 0 -.33339 0 2093.333)"/><path d="M16115.5 2636.81c85.2 41.25 105.8 66.42 162.7 55.05 17.4-3.49 21.8 19.2 20.3 35.72-41.6-2.15-86.5-5.68-185.9-86.12-.9-2.02.9-5.62 2.9-4.65" style="fill:#151516;fill-opacity:1;fill-rule:nonzero;stroke:none" transform="matrix(.33933 0 0 -.33933 0 2093.333)"/><path d="M16130.9 3054.15c-56.8 0-249.4 36.15-359.6-26.88-91.1-52.11 4.4-156.61-146.9-195.65-84-21.65 80.8-184.56-81.2-221.53-21.6-4.91-56.2-49.02-108.6-75.77-211.3-108.03-168.1-328.64-258.3-347.91-155.4 462.14-502.2 953.36-11.5 1203.15 929.2 473.07 1135.2-194.23 966.1-335.41" style="fill:#0a0909;fill-opacity:1;fill-rule:nonzero;stroke:none" transform="matrix(.34306 0 0 -.34306 0 2093.333)"/><path d="M16239 2522.08c-27.5-10.16-139.9-12.46-214.3 8.39 11.9 35.74 83.6 76.78 86.5 106.99 34.6 67.52 94.6 107.67 124.5 180.89 64.3-70.46 58.2-275.96 3.3-296.27" style="fill:#8c4943;fill-opacity:1;fill-rule:nonzero;stroke:none" transform="matrix(.32754 0 0 -.32754 0 2093.333)"/><path d="M16103.3 2891.69c-102.7-26.13-92.8-199.78-30.2-287.64 43.2-60.57 147.6-72.64 186.5-56.14 38 16.09 40.4 126.64 13.7 216.4-16 53.58-53.7 157-170 127.38" style="fill:#9c554c;fill-opacity:1;fill-rule:nonzero;stroke:none" transform="matrix(.32755 0 0 -.32755 0 2093.333)"/><path d="M16267.8 2668.91c9.5 4.77 32.2 34.19-1 42.45-80.7 20.07-10.5 48.35-42.5 47.73-35.5-.69-36.1-19.33-32.5-41.68 3.6-22.34 49.7-61.76 76-48.5" style="fill:#8c4943;fill-opacity:1;fill-rule:nonzero;stroke:none" transform="matrix(.32705 0 0 -.32705 0 2093.333)"/><path d="M16282.1 2800.51c7.1-1.86 17.9 26.9-21 53.81-80.6 74.72-175-58.55-133.1-166.8 20.3-52.56 89.3-94.97 96-87.3-59.6 61.96-143.8 168.51-46.7 232.83 69.8 46.27 94.2-29.78 104.8-32.54" style="fill:#8c4943;fill-opacity:1;fill-rule:nonzero;stroke:none" transform="matrix(.32635 0 0 -.32635 0 2093.333)"/><path d="M16295.9 2663.94c-4-21.45-17.4-36.92-29.7-34.58-12.4 2.35-19.1 21.64-15.1 43.08 4.1 21.44 17.4 36.92 29.8 34.58 12.4-2.35 19.1-21.64 15-43.08" style="fill:#151516;fill-opacity:1;fill-rule:nonzero;stroke:none" transform="matrix(.33875 0 0 -.33875 0 2093.333)"/><path d="M16256.4 2260.66v-.06c-41.2 4.5-94.7 14.53-144.8 31.21 59.7 8.74 127.1 22.75 175.6 45.53 12.8-33.64 0-68.37-30.8-76.68" style="fill:#8c4943;fill-opacity:1;fill-rule:nonzero;stroke:none" transform="matrix(.34045 0 0 -.34045 0 2093.333)"/><path d="M16300 2110.62c-9.2-11.14-15.6-22.07-17.4-31.88-11.4-65.79-22.8-95.42-53.2-134.88-108.1 106.63-211.4 172.34-317.8 318.4 201.7-65.75 319.1-124.59 388.4-151.64" style="fill:#8c4943;fill-opacity:1;fill-rule:nonzero;stroke:none" transform="matrix(.33173 0 0 -.33173 0 2093.333)"/><path d="m16032.6 2694.55 250-130.01 17.4-25.64-277.4 148.32z" style="fill:#216c46;fill-opacity:1;fill-rule:nonzero;stroke:none" transform="matrix(.33281 0 0 -.33281 0 2093.333)"/><path d="M16233.1 2508.15c22.8-16.79 66.9-141.64 66.9-144.22 0-2.57-33.5-15.45-46.4-77.26-12.8-61.81-33.4-118.46-61.8-188-28.3-69.55-18-115.91-105.5-115.91-87.6 0-273.4 21.3-345.1 82.41 64 80.55 74.6 303.91 48.9 424.96 154.5-56.66 365.7-56.66 443 18.02" style="fill:#151516;fill-opacity:1;fill-rule:nonzero;stroke:none" transform="matrix(.34316 0 0 -.34316 0 2093.333)"/><path d="M15953.7 2518.24c29.3-183.86 346.3-365.49 346.3-365.49v-23.96s-350.3 200.36-361 392.21c-.4 6.27 13.7 3.45 14.7-2.76" style="fill:#216c46;fill-opacity:1;fill-rule:nonzero;stroke:none" transform="matrix(.33167 0 0 -.33167 0 2093.333)"/><path d="M16300 0h-1013.2c-14.7 195.802-33 378.931-18.3 549.031 19.2 304.657 93 532.069 264.6 763.309v.02c15.5 15.23 67.7 32.22 92 45.55 8.7 7.73 15 3.25 32.2-2.25 197.2-66.11 122.4-16.96 282.2-159.24 3.1-2.7 6.2-5.47 9.4-8.31C16236 933.761 16299.3 431.489 16300 0" style="fill:#f68d2e;fill-opacity:1;fill-rule:nonzero;stroke:none" transform="matrix(.48505 0 0 -.48505 0 2093.333)"/><path d="M16300 1541.02c-17.6-9.59-50.5-32.12-68.2-53.5-6.2-7.49-10.5-14.88-11.7-21.49-7.7-44.4-15.4-64.39-35.9-91.01l-1.8-2.25c-27.5-65.34-9.1-178.99-27.8-186.51-193.5-78.11-411.8 114.34-405 138.9 0 .25 95.3 340.34 95.3 340.34s405.7-68.25 455.1-124.48" style="fill:#973626;fill-opacity:1;fill-rule:nonzero;stroke:none" transform="matrix(.47833 0 0 -.47833 0 2093.333)"/><path d="M16277.4 1761.12c22.6-33.86.6-59.32-63.7-70.25-81-10.21-5.8 187.37-5.8 187.37.9 2.97 50.4-88.44 69.5-117.12" style="fill:#973626;fill-opacity:1;fill-rule:nonzero;stroke:none" transform="matrix(.48656 0 0 -.48656 0 2093.333)"/><path d="M16249.1 1565.96c-4-7.68 0-83.34-21.5-103.77-33.7-31.94-126-22.7-266 19.14 0 0-213.7 37.27-278.3 68.24-166.4 308.07-281.9 327.65-223.2 662.42 49.4 281.63 721.6 313.85 784.2 49.56 8.7-36.53 46.4-184.76 49-291.17.3-10.89-23.5-84.27-23.9-94.85-2.7-60.45 9.4-121.49 3.8-170.79-1.1-9.35 9-30.79 16.8-44.51.1-.1.2-.22.2-.32 9.8-17.62-5.6-43.44-18.9-43.44 0-.04 0-.06.1-.1 0-.05 0-.17.1-.19.8-.33 1.5-.74 2.2-1.24 14.6-10 14.6-50.85-24.6-48.98" style="fill:#973626;fill-opacity:1;fill-rule:nonzero;stroke:none" transform="matrix(.48478 0 0 -.48478 0 2093.333)"/><path d="M16274.3 1944.71c7.2-1.9 25.7 34.93-3.5 36.72-30.4 1.86-60.5 8.12-82.8 0-46.8-16.98-80.5-66.45-80.5-66.45.6-1.01 6.4-5.79 11.5-3.43 12.6 5.84 37.3 27.53 69.5 36.6 26 7.3 57.6 3.93 85.8-3.44" style="fill:#261210;fill-opacity:1;fill-rule:nonzero;stroke:none" transform="matrix(.48451 0 0 -.48451 0 2093.333)"/><path d="M16278.6 1721.1c-21.3-27.87-71.5-25.32-111.9 5.7-40.4 31.01-55.9 78.75-34.5 106.61 21.3 27.87 71.4 25.32 111.9-5.69 40.4-31.02 55.9-78.75 34.5-106.62" style="fill:#802b20;fill-opacity:1;fill-rule:nonzero;stroke:none" transform="matrix(.47795 0 0 -.47795 0 2093.333)"/><path d="M16177.9 1862.77c67.3 22.91 86.6 40.39 110.1 36.47 12-2 10.2 8.03 9.2 19.31-28.4-1.47-46.1.5-121.2-50.01-.6-1.39.5-6.27 1.9-5.77" style="fill:#151516;fill-opacity:1;fill-rule:nonzero;stroke:none" transform="matrix(.48361 0 0 -.48361 0 2093.333)"/><path d="M16297.8 1880.6c-2.2-14.72-10.8-25.64-19.3-24.38s-13.6 14.22-11.5 28.94c2.2 14.73 10.9 25.65 19.4 24.39s13.6-14.22 11.4-28.95" style="fill:#151516;fill-opacity:1;fill-rule:nonzero;stroke:none" transform="matrix(.48315 0 0 -.48315 0 2093.333)"/><path d="M16271.3 1616.47c0-.04 0-.06.1-.1 0-.05 0-.17.1-.19.8-.33 1.5-.74 2.2-1.24-27.3.67-48 6.52-94.1 21.87 40.8 0 81.1 13.06 110.4 23.42.1-.1.2-.22.2-.32 9.8-17.62-5.6-43.44-18.9-43.44" style="fill:#802b20;fill-opacity:1;fill-rule:nonzero;stroke:none" transform="matrix(.48478 0 0 -.48478 0 2093.333)"/><path d="M16300 1493.77c-6.2-7.53-10.6-14.94-11.8-21.58-7.7-44.59-15.5-64.66-36-91.39-73.3 72.22-143.3 116.75-215.4 215.73 136.7-44.56 216.2-84.42 263.2-102.76" style="fill:#802b20;fill-opacity:1;fill-rule:nonzero;stroke:none" transform="matrix(.47633 0 0 -.47633 0 2093.333)"/><path d="M15999.5 2229.01s265.2-19.65 300.5 29.45c0 108.03-105.5 210.44-443.9 200.34-263.2-7.85-377.1-130.19-404.6-345.67-21-165.06 160.7-441.76 233.6-464.43 96.4 234.63 159.2 207.13 176.9 230.7 11.9 15.9 15.1 9.81 58.9 27.5 102.2 41.24-17.6 141.41 108.1 168.91 51 11.78-29.5 153.2-29.5 153.2" style="fill:#261210;fill-opacity:1;fill-rule:nonzero;stroke:none" transform="matrix(.4832 0 0 -.4832 0 2093.333)"/><path d="M16244.1 1778.31c-26.9-26.51-80.5-8.55-142.7 20.1 8.1 24.11 60.3 74.06 62.3 94.45 23.3 45.56 72.7 23.73 92.9 73.14 43.4-47.54 15.6-159.96-12.5-187.69" style="fill:#802b20;fill-opacity:1;fill-rule:nonzero;stroke:none" transform="matrix(.47225 0 0 -.47225 0 2093.333)"/><path d="M16167.3 2015.51c-69.3-17.63-62.6-134.8-20.4-194.09 29.2-40.87 99.6-49.01 125.8-37.88 25.7 10.86 27.3 85.45 9.3 146.02-10.8 36.15-36.3 105.94-114.7 85.95" style="fill:#973626;fill-opacity:1;fill-rule:nonzero;stroke:none" transform="matrix(.47226 0 0 -.47226 0 2093.333)"/><path d="M16278.3 1864.35c6.4 3.22 21.7 23.06-.7 28.63-54.4 13.54-7.1 32.61-28.6 32.19-24-.46-24.4-13.03-21.9-28.1 2.4-15.08 33.4-41.67 51.2-32.72" style="fill:#802b20;fill-opacity:1;fill-rule:nonzero;stroke:none" transform="matrix(.47177 0 0 -.47177 0 2093.333)"/><path d="M16287.9 1951.89c4.8-1.26 12.1 18.13-14.1 36.26-54.4 50.36-118-39.46-89.8-112.41 13.7-35.42 60.2-64.01 64.7-58.84-40.1 41.76-96.8 113.57-31.4 156.92 47 31.18 63.5-20.07 70.6-21.93" style="fill:#802b20;fill-opacity:1;fill-rule:nonzero;stroke:none" transform="matrix(.4711 0 0 -.4711 0 2093.333)"/><path d="M16300 0h-520.9c-64.4 237.3-153.9 596.297-152 751.176 3.9 323.564 440.2 366.064 540.8 122.171 53.6-129.77 98.9-601.253 132.1-873.347" style="fill:#f57f24;fill-opacity:1;fill-rule:nonzero;stroke:none" transform="matrix(.479 0 0 -.479 0 2093.333)"/><path d="m16156.9 1932.08 143.1-80.67-2.5-26.9-145.4 104.69z" style="fill:#28292a;fill-opacity:1;fill-rule:nonzero;stroke:none" transform="matrix(.47591 0 0 -.47591 0 2093.333)"/><path d="M16256.8 1821.3c16.1-11.85 43.2-97.81 43.2-99.63 0-1.81-43-70.3-63-119.37-20-49.06-17.8-167.29-119.3-171.05-61.8-2.3-158 15.14-208.7 58.27 45.2 56.83 55.8 239.79 37.6 325.2 109-39.98 255.7-46.12 310.2 6.58" style="fill:#380c13;fill-opacity:1;fill-rule:nonzero;stroke:none" transform="matrix(.48629 0 0 -.48629 0 2093.333)"/><path d="M16135.4 1770.44c20.5-128.4 164.6-230.97 164.6-230.97l-11.6-14.43s-156.1 111.42-163.5 245.4c-.3 4.38 9.8 4.33 10.5 0" style="fill:#28292a;fill-opacity:1;fill-rule:nonzero;stroke:none" transform="matrix(.47496 0 0 -.47496 0 2093.333)"/><path d="M16265.4 0H13784c-97.6 1039.58-165.4 2202.07 512.1 3109.76 28.3 37.96 51.9 78.98 78.9 117.67 1.1 1.66 2.3 3.25 3.5 4.85.6 1 1.2 1.93 2 2.86 28.1 39.35 209.4 123.98 251.6 149.77 6.2-1.73 12.3-3.65 18.5-5.38 283-85.03 519.3-238.59 713.9-435.63 57.9-58.64 112.1-121.06 162.7-186.74 10.9-14.16 20.9-28.92 32.2-42.81 740.6-912.67 643.8-1509.84 699-2532.001 3.3-61.624 5.6-122.52 7-182.349" style="fill:#653e21;fill-opacity:1;fill-rule:nonzero;stroke:none" transform="matrix(.20057 0 0 -.20057 0 2093.333)"/><path d="M16300 3904.12c-44.3-23.79-127-79.44-171.5-132.33-15.6-18.62-26.5-36.82-29.4-53.23-19.4-109.77-38.8-159.22-90.4-225.07-1.4-1.86-2.9-3.72-4.4-5.58-69.1-161.63-62.1-412.35-69.8-461.38-34.2-218.17-528.7-22.41-818.2 133.91-129.9 70.2-217.2 148.88-200.1 209.63-.1.62 239.6 841.95 239.6 841.95s1019.9-168.85 1144.2-307.9" style="fill:#f68556;fill-opacity:1;fill-rule:nonzero;stroke:none" transform="matrix(.19337 0 0 -.19337 0 2093.333)"/><path d="M16237.2 4330.19c62.8-125.8 10.4-136.95-147.5-163.31-198.4-24.64-14 451.97-14 451.97 2.2 7.17 103-171.42 161.5-288.66" style="fill:#f68556;fill-opacity:1;fill-rule:nonzero;stroke:none" transform="matrix(.20171 0 0 -.20171 0 2093.333)"/><path d="M16279.3 4116.53c20.7-41.96-2.1-90.76-34.1-90.76.9-1 1.7-2.18 2.6-3.47 19.3-28.32 38.5-121.18-58.5-116.61-9.8-18.58 1.2-217.84-52.1-267.51-83.1-77.51-310.7-55.08-656 46.53 0 0-527.3 90.39-686.7 165.62-410.5 747.76-582.7 730.32-437.8 1542.89 121.9 683.56 1609.6 755.79 1840.6 118.85 31.1-85.82 95.2-656.29 95.2-656.29-1-26.42-51-188.6-52.1-214.26-6.4-146.74 23.3-294.9 9.5-414.56-2.6-22.9 8-73.31 27.4-106.58.7-1.28 1.4-2.57 2-3.85" style="fill:#f68556;fill-opacity:1;fill-rule:nonzero;stroke:none" transform="matrix(.19972 0 0 -.19972 0 2093.333)"/><path d="M16212.3 4817.62c34.8-10.74 87.7 87.13 15.6 91.48-75.1 4.52-164.3 3.04-219.5-16.68-115.4-41.22-155.4-148.46-155.4-148.46 1.6-2.45 15.9-14.05 28.4-8.31 56 25.57 170.9 131.38 330.9 81.97" style="fill:#561414;fill-opacity:1;fill-rule:nonzero;stroke:none" transform="matrix(.19954 0 0 -.19954 0 2093.333)"/><path d="M16300 0h-1200.8c-92.2 285.527-204.9 640.986-261.3 842.622-815 2108.628 874.7 1880.258 1004.4 1500.398C16008.7 2004.91 16189 681.478 16300 0" style="fill:#502e1b;fill-opacity:1;fill-rule:nonzero;stroke:none" transform="matrix(.19295 0 0 -.19295 0 2093.333)"/><path d="M16245.5 4257.26c-53.6-68.83-179.5-62.53-281 14.08s-140.4 194.52-86.7 263.36c53.6 68.84 219 90.91 320.6 14.29 101.6-76.61 100.8-222.88 47.1-291.73" style="fill:#e4784f;fill-opacity:1;fill-rule:nonzero;stroke:none" transform="matrix(.19348 0 0 -.19348 0 2093.333)"/><path d="M16001.8 4623.7c166.5 55.79 210.3 89.23 268.5 79.67 29.7-4.86 29.2 28.66 26.6 56.12-70.2-3.57-113.9 1.2-299.8-121.74-1.6-3.37 1.2-15.25 4.7-14.05" style="fill:#151516;fill-opacity:1;fill-rule:nonzero;stroke:none" transform="matrix(.19868 0 0 -.19868 0 2093.333)"/><path d="M16300 2894.39c-541.7-10.26-1051.9 234.34-1292.4 370.15 28.3 44.8 57.7 88.63 88.6 131.61 29.5 41.25 219.8 130.15 264.2 157.23 6.4-1.88 12.9-3.76 19.3-5.65 385.6-115.85 688.4-352.7 920.3-653.34" style="fill:#f68556;fill-opacity:1;fill-rule:nonzero;stroke:none" transform="matrix(.19106 0 0 -.19106 0 2093.333)"/><path d="M16294.6 4672.69c-5.4-35.89-26.9-62.5-47.9-59.43-21.1 3.06-33.7 34.65-28.3 70.54 5.3 35.88 26.8 62.49 47.8 59.42 21.1-3.06 33.8-34.65 28.4-70.53" style="fill:#151516;fill-opacity:1;fill-rule:nonzero;stroke:none" transform="matrix(.19826 0 0 -.19826 0 2093.333)"/><path d="M16300 3811.9c-15.7-18.82-26.8-37.22-29.7-53.8-19.6-110.94-39.2-160.91-91.3-227.46-185.4 179.79-362.5 290.66-544.9 537.03 345.8-110.9 547.1-210.2 665.9-255.77" style="fill:#e4784f;fill-opacity:1;fill-rule:nonzero;stroke:none" transform="matrix(.19133 0 0 -.19133 0 2093.333)"/><path d="M16044.9 5239.19c-74.8-178.69-152.8-127.68-473.2-95.96-572.1 56.62-154.6-482.64-446.9-510.03-418.2-39.19-540.3-330.66-732.6-821.12-461.8 331.39-844.4 1882.13-69.8 1933.67 450.2 261.81 905.8 398.59 1349 261.62 628.6-194.24 431.7-629.12 373.5-768.18" style="fill:#591f1c;fill-opacity:1;fill-rule:nonzero;stroke:none" transform="matrix(.2028 0 0 -.2028 0 2093.333)"/><path d="M16194.4 4550.79c-47.5-17.29-267.2 14.92-396.1 50.42 20.7 60.83 135.1 181.91 140.3 233.35 59.7 114.95 198.5 95.96 250.2 220.6 111.2-119.93 100.7-469.78 5.6-504.37" style="fill:#e4784f;fill-opacity:1;fill-rule:nonzero;stroke:none" transform="matrix(.18718 0 0 -.18718 0 2093.333)"/><path d="M15959.6 5179.87c-177.5-44.48-160.5-340.09-52.1-489.66 74.7-103.12 255.2-123.64 322.6-95.57 65.7 27.4 69.9 215.59 23.7 368.39-27.7 91.21-92.9 267.27-294.2 216.84" style="fill:#f68556;fill-opacity:1;fill-rule:nonzero;stroke:none" transform="matrix(.1872 0 0 -.1872 0 2093.333)"/><path d="M16244.3 4806.41c16.4 8.14 55.7 58.28-1.8 72.35-139.8 34.21-18.1 82.41-73.6 81.34-61.5-1.17-62.5-32.94-56.2-71.01 6.3-38.08 86-105.27 131.6-82.68" style="fill:#e4784f;fill-opacity:1;fill-rule:nonzero;stroke:none" transform="matrix(.1867 0 0 -.1867 0 2093.333)"/><path d="M16268.9 5039.09c12.4-3.18 31.1 45.91-36.3 91.84-140 127.55-303.8-99.94-231.1-284.7 35.3-89.72 154.9-162.12 166.6-149.02-103.4 105.76-249.4 287.62-81 397.42 121.1 78.98 163.4-50.82 181.8-55.54" style="fill:#e4784f;fill-opacity:1;fill-rule:nonzero;stroke:none" transform="matrix(.18601 0 0 -.18601 0 2093.333)"/><path d="M16245.2 4025.77c.9-1 1.7-2.18 2.6-3.47-103.3-9.93-194.8 9.39-276.3 31.67 148.4 29.52 307.8 62.56 307.8 62.56 20.7-41.96-2.1-90.76-34.1-90.76" style="fill:#e4784f;fill-opacity:1;fill-rule:nonzero;stroke:none" transform="matrix(.19972 0 0 -.19972 0 2093.333)"/><path d="m16300 4481.06-525.6 366.1 14.2-36.34 461.8-383.97z" style="fill:#e1e1df;fill-opacity:1;fill-rule:nonzero;stroke:none" transform="matrix(.19282 0 0 -.19282 0 2093.333)"/><path d="m16300 4071.03-9.1-77.6-469.6 499.98h57.5z" style="fill:#e1e1df;fill-opacity:1;fill-rule:nonzero;stroke:none" transform="matrix(.19084 0 0 -.19084 0 2093.333)"/><path d="M16104.8 4444.36s-543-28.73-697.8-127.63c-154.8-98.91-199.9-606.55-144-683.95s462.3-124.46 569.8-124.46c107.4 0 434.6 255.65 460.1 602 7.1 96.95-188.1 334.04-188.1 334.04" style="fill:#8a8d8d;fill-opacity:1;fill-rule:nonzero;stroke:none" transform="matrix(.20258 0 0 -.20258 0 2093.333)"/><path d="M16300 4456.5c-92.2-4.74-570.4-20.36-701.9-120.84-229.8-175.54-139.6-698.99-135.5-702.91-20.9 13.16-32.7 12.76-41.1 24.27-56.4 78.21-14.6 604.77 141.8 704.71 156.4 99.93 714 135.8 714 135.8z" style="fill:#565a5b;fill-opacity:1;fill-rule:nonzero;stroke:none" transform="matrix(.20049 0 0 -.20049 0 2093.333)"/></svg>